<?xml version="1.0" encoding="utf-8" standalone="no"?>
<!DOCTYPE svg PUBLIC "-//W3C//DTD SVG 1.1//EN"
  "http://www.w3.org/Graphics/SVG/1.1/DTD/svg11.dtd">
<svg xmlns:xlink="http://www.w3.org/1999/xlink" width="432pt" height="432pt" viewBox="0 0 432 432" xmlns="http://www.w3.org/2000/svg" version="1.1">
 <metadata>
  <rdf:RDF xmlns:dc="http://purl.org/dc/elements/1.1/" xmlns:cc="http://creativecommons.org/ns#" xmlns:rdf="http://www.w3.org/1999/02/22-rdf-syntax-ns#">
   <cc:Work>
    <dc:type rdf:resource="http://purl.org/dc/dcmitype/StillImage"/>
    <dc:date>2026-01-19T16:47:13.868001</dc:date>
    <dc:format>image/svg+xml</dc:format>
    <dc:creator>
     <cc:Agent>
      <dc:title>Matplotlib v3.10.8, https://matplotlib.org/</dc:title>
     </cc:Agent>
    </dc:creator>
   </cc:Work>
  </rdf:RDF>
 </metadata>
 <defs>
  <style type="text/css">*{stroke-linejoin: round; stroke-linecap: butt}</style>
 </defs>
 <g id="figure_1">
  <g id="patch_1">
   <path d="M 0 432 
L 432 432 
L 432 0 
L 0 0 
z
" style="fill: #ffffff"/>
  </g>
  <g id="axes_1">
   <g id="patch_2">
    <path d="M 221.4 366.1848 
C 260.656636 366.1848 298.310706 350.587973 326.06934 322.82934 
C 353.827973 295.070706 369.4248 257.416636 369.4248 218.16 
C 369.4248 178.903364 353.827973 141.249294 326.06934 113.49066 
C 298.310706 85.732027 260.656636 70.1352 221.4 70.1352 
C 182.143364 70.1352 144.489294 85.732027 116.73066 113.49066 
C 88.972027 141.249294 73.3752 178.903364 73.3752 218.16 
C 73.3752 257.416636 88.972027 295.070706 116.73066 322.82934 
C 144.489294 350.587973 182.143364 366.1848 221.4 366.1848 
z
" style="fill: #ffffff"/>
   </g>
   <g id="matplotlib.axis_1">
    <g id="xtick_1"/>
    <g id="xtick_2">
     <g id="text_1">
      <g id="patch_3">
       <path d="M 110.710262 226.111562 
L 110.710262 210.208437 
Q 110.710262 208.208437 109.210262 208.208437 
L 99.532137 208.208437 
Q 98.032137 208.208437 98.032137 210.208437 
L 98.032137 226.111562 
Q 98.032137 228.111562 99.532137 228.111562 
L 109.210262 228.111562 
Q 110.710262 228.111562 110.710262 226.111562 
z
" clip-path="url(#p71db9c8d10)" style="fill: #ffffff; stroke: #ffffff; stroke-linejoin: miter"/>
      </g>
      <g clip-path="url(#p71db9c8d10)">
       <!-- 0.1 -->
       <g transform="translate(107.130575 226.111562) rotate(-90) scale(0.1 -0.1)">
        <defs>
         <path id="DejaVuSans-30" d="M 2034 4250 
Q 1547 4250 1301 3770 
Q 1056 3291 1056 2328 
Q 1056 1369 1301 889 
Q 1547 409 2034 409 
Q 2525 409 2770 889 
Q 3016 1369 3016 2328 
Q 3016 3291 2770 3770 
Q 2525 4250 2034 4250 
z
M 2034 4750 
Q 2819 4750 3233 4129 
Q 3647 3509 3647 2328 
Q 3647 1150 3233 529 
Q 2819 -91 2034 -91 
Q 1250 -91 836 529 
Q 422 1150 422 2328 
Q 422 3509 836 4129 
Q 1250 4750 2034 4750 
z
" transform="scale(0.015625)"/>
         <path id="DejaVuSans-2e" d="M 684 794 
L 1344 794 
L 1344 0 
L 684 0 
L 684 794 
z
" transform="scale(0.015625)"/>
         <path id="DejaVuSans-31" d="M 794 531 
L 1825 531 
L 1825 4091 
L 703 3866 
L 703 4441 
L 1819 4666 
L 2450 4666 
L 2450 531 
L 3481 531 
L 3481 0 
L 794 0 
L 794 531 
z
" transform="scale(0.015625)"/>
        </defs>
        <use xlink:href="#DejaVuSans-30"/>
        <use xlink:href="#DejaVuSans-2e" transform="translate(63.623047 0)"/>
        <use xlink:href="#DejaVuSans-31" transform="translate(95.410156 0)"/>
       </g>
      </g>
     </g>
    </g>
    <g id="xtick_3">
     <g id="text_2">
      <g id="patch_4">
       <path d="M 150.720109 226.111562 
L 150.720109 210.208437 
Q 150.720109 208.208437 149.220109 208.208437 
L 139.541984 208.208437 
Q 138.041984 208.208437 138.041984 210.208437 
L 138.041984 226.111562 
Q 138.041984 228.111562 139.541984 228.111562 
L 149.220109 228.111562 
Q 150.720109 228.111562 150.720109 226.111562 
z
" clip-path="url(#p71db9c8d10)" style="fill: #ffffff; stroke: #ffffff; stroke-linejoin: miter"/>
      </g>
      <g clip-path="url(#p71db9c8d10)">
       <!-- 0.3 -->
       <g transform="translate(147.140421 226.111562) rotate(-90) scale(0.1 -0.1)">
        <defs>
         <path id="DejaVuSans-33" d="M 2597 2516 
Q 3050 2419 3304 2112 
Q 3559 1806 3559 1356 
Q 3559 666 3084 287 
Q 2609 -91 1734 -91 
Q 1441 -91 1130 -33 
Q 819 25 488 141 
L 488 750 
Q 750 597 1062 519 
Q 1375 441 1716 441 
Q 2309 441 2620 675 
Q 2931 909 2931 1356 
Q 2931 1769 2642 2001 
Q 2353 2234 1838 2234 
L 1294 2234 
L 1294 2753 
L 1863 2753 
Q 2328 2753 2575 2939 
Q 2822 3125 2822 3475 
Q 2822 3834 2567 4026 
Q 2313 4219 1838 4219 
Q 1578 4219 1281 4162 
Q 984 4106 628 3988 
L 628 4550 
Q 988 4650 1302 4700 
Q 1616 4750 1894 4750 
Q 2613 4750 3031 4423 
Q 3450 4097 3450 3541 
Q 3450 3153 3228 2886 
Q 3006 2619 2597 2516 
z
" transform="scale(0.015625)"/>
        </defs>
        <use xlink:href="#DejaVuSans-30"/>
        <use xlink:href="#DejaVuSans-2e" transform="translate(63.623047 0)"/>
        <use xlink:href="#DejaVuSans-33" transform="translate(95.410156 0)"/>
       </g>
      </g>
     </g>
    </g>
    <g id="xtick_4">
     <g id="text_3">
      <g id="patch_5">
       <path d="M 191.980262 226.111562 
L 191.980262 210.208437 
Q 191.980262 208.208437 190.480262 208.208437 
L 180.802137 208.208437 
Q 179.302137 208.208437 179.302137 210.208437 
L 179.302137 226.111562 
Q 179.302137 228.111562 180.802137 228.111562 
L 190.480262 228.111562 
Q 191.980262 228.111562 191.980262 226.111562 
z
" clip-path="url(#p71db9c8d10)" style="fill: #ffffff; stroke: #ffffff; stroke-linejoin: miter"/>
      </g>
      <g clip-path="url(#p71db9c8d10)">
       <!-- 0.6 -->
       <g transform="translate(188.400575 226.111562) rotate(-90) scale(0.1 -0.1)">
        <defs>
         <path id="DejaVuSans-36" d="M 2113 2584 
Q 1688 2584 1439 2293 
Q 1191 2003 1191 1497 
Q 1191 994 1439 701 
Q 1688 409 2113 409 
Q 2538 409 2786 701 
Q 3034 994 3034 1497 
Q 3034 2003 2786 2293 
Q 2538 2584 2113 2584 
z
M 3366 4563 
L 3366 3988 
Q 3128 4100 2886 4159 
Q 2644 4219 2406 4219 
Q 1781 4219 1451 3797 
Q 1122 3375 1075 2522 
Q 1259 2794 1537 2939 
Q 1816 3084 2150 3084 
Q 2853 3084 3261 2657 
Q 3669 2231 3669 1497 
Q 3669 778 3244 343 
Q 2819 -91 2113 -91 
Q 1303 -91 875 529 
Q 447 1150 447 2328 
Q 447 3434 972 4092 
Q 1497 4750 2381 4750 
Q 2619 4750 2861 4703 
Q 3103 4656 3366 4563 
z
" transform="scale(0.015625)"/>
        </defs>
        <use xlink:href="#DejaVuSans-30"/>
        <use xlink:href="#DejaVuSans-2e" transform="translate(63.623047 0)"/>
        <use xlink:href="#DejaVuSans-36" transform="translate(95.410156 0)"/>
       </g>
      </g>
     </g>
    </g>
    <g id="xtick_5">
     <g id="text_4">
      <g id="patch_6">
       <path d="M 227.739062 221.34125 
L 227.739062 214.97875 
Q 227.739062 212.97875 226.239062 212.97875 
L 216.560937 212.97875 
Q 215.060937 212.97875 215.060937 214.97875 
L 215.060937 221.34125 
Q 215.060937 223.34125 216.560937 223.34125 
L 226.239062 223.34125 
Q 227.739062 223.34125 227.739062 221.34125 
z
" clip-path="url(#p71db9c8d10)" style="fill: #ffffff; stroke: #ffffff; stroke-linejoin: miter"/>
      </g>
      <g clip-path="url(#p71db9c8d10)">
       <!-- 1 -->
       <g transform="translate(224.159375 221.34125) rotate(-90) scale(0.1 -0.1)">
        <use xlink:href="#DejaVuSans-31"/>
       </g>
      </g>
     </g>
    </g>
    <g id="xtick_6">
     <g id="text_5">
      <g id="patch_7">
       <path d="M 256.346102 226.111562 
L 256.346102 210.208437 
Q 256.346102 208.208437 254.846102 208.208437 
L 245.167977 208.208437 
Q 243.667977 208.208437 243.667977 210.208437 
L 243.667977 226.111562 
Q 243.667977 228.111562 245.167977 228.111562 
L 254.846102 228.111562 
Q 256.346102 228.111562 256.346102 226.111562 
z
" clip-path="url(#p71db9c8d10)" style="fill: #ffffff; stroke: #ffffff; stroke-linejoin: miter"/>
      </g>
      <g clip-path="url(#p71db9c8d10)">
       <!-- 1.5 -->
       <g transform="translate(252.766415 226.111562) rotate(-90) scale(0.1 -0.1)">
        <defs>
         <path id="DejaVuSans-35" d="M 691 4666 
L 3169 4666 
L 3169 4134 
L 1269 4134 
L 1269 2991 
Q 1406 3038 1543 3061 
Q 1681 3084 1819 3084 
Q 2600 3084 3056 2656 
Q 3513 2228 3513 1497 
Q 3513 744 3044 326 
Q 2575 -91 1722 -91 
Q 1428 -91 1123 -41 
Q 819 9 494 109 
L 494 744 
Q 775 591 1075 516 
Q 1375 441 1709 441 
Q 2250 441 2565 725 
Q 2881 1009 2881 1497 
Q 2881 1984 2565 2268 
Q 2250 2553 1709 2553 
Q 1456 2553 1204 2497 
Q 953 2441 691 2322 
L 691 4666 
z
" transform="scale(0.015625)"/>
        </defs>
        <use xlink:href="#DejaVuSans-31"/>
        <use xlink:href="#DejaVuSans-2e" transform="translate(63.623047 0)"/>
        <use xlink:href="#DejaVuSans-35" transform="translate(95.410156 0)"/>
       </g>
      </g>
     </g>
    </g>
    <g id="xtick_7">
     <g id="text_6">
      <g id="patch_8">
       <path d="M 286.63591 226.111562 
L 286.63591 210.208437 
Q 286.63591 208.208437 285.13591 208.208437 
L 275.457785 208.208437 
Q 273.957785 208.208437 273.957785 210.208437 
L 273.957785 226.111562 
Q 273.957785 228.111562 275.457785 228.111562 
L 285.13591 228.111562 
Q 286.63591 228.111562 286.63591 226.111562 
z
" clip-path="url(#p71db9c8d10)" style="fill: #ffffff; stroke: #ffffff; stroke-linejoin: miter"/>
      </g>
      <g clip-path="url(#p71db9c8d10)">
       <!-- 2.4 -->
       <g transform="translate(283.056222 226.111562) rotate(-90) scale(0.1 -0.1)">
        <defs>
         <path id="DejaVuSans-32" d="M 1228 531 
L 3431 531 
L 3431 0 
L 469 0 
L 469 531 
Q 828 903 1448 1529 
Q 2069 2156 2228 2338 
Q 2531 2678 2651 2914 
Q 2772 3150 2772 3378 
Q 2772 3750 2511 3984 
Q 2250 4219 1831 4219 
Q 1534 4219 1204 4116 
Q 875 4013 500 3803 
L 500 4441 
Q 881 4594 1212 4672 
Q 1544 4750 1819 4750 
Q 2544 4750 2975 4387 
Q 3406 4025 3406 3419 
Q 3406 3131 3298 2873 
Q 3191 2616 2906 2266 
Q 2828 2175 2409 1742 
Q 1991 1309 1228 531 
z
" transform="scale(0.015625)"/>
         <path id="DejaVuSans-34" d="M 2419 4116 
L 825 1625 
L 2419 1625 
L 2419 4116 
z
M 2253 4666 
L 3047 4666 
L 3047 1625 
L 3713 1625 
L 3713 1100 
L 3047 1100 
L 3047 0 
L 2419 0 
L 2419 1100 
L 313 1100 
L 313 1709 
L 2253 4666 
z
" transform="scale(0.015625)"/>
        </defs>
        <use xlink:href="#DejaVuSans-32"/>
        <use xlink:href="#DejaVuSans-2e" transform="translate(63.623047 0)"/>
        <use xlink:href="#DejaVuSans-34" transform="translate(95.410156 0)"/>
       </g>
      </g>
     </g>
    </g>
    <g id="xtick_8">
     <g id="text_7">
      <g id="patch_9">
       <path d="M 317.798263 226.111562 
L 317.798263 210.208437 
Q 317.798263 208.208437 316.298263 208.208437 
L 306.620137 208.208437 
Q 305.120137 208.208437 305.120137 210.208437 
L 305.120137 226.111562 
Q 305.120137 228.111562 306.620137 228.111562 
L 316.298263 228.111562 
Q 317.798263 228.111562 317.798263 226.111562 
z
" clip-path="url(#p71db9c8d10)" style="fill: #ffffff; stroke: #ffffff; stroke-linejoin: miter"/>
      </g>
      <g clip-path="url(#p71db9c8d10)">
       <!-- 4.4 -->
       <g transform="translate(314.218575 226.111562) rotate(-90) scale(0.1 -0.1)">
        <use xlink:href="#DejaVuSans-34"/>
        <use xlink:href="#DejaVuSans-2e" transform="translate(63.623047 0)"/>
        <use xlink:href="#DejaVuSans-34" transform="translate(95.410156 0)"/>
       </g>
      </g>
     </g>
    </g>
    <g id="xtick_9">
     <g id="text_8">
      <g id="patch_10">
       <path d="M 350.340663 224.5225 
L 350.340663 211.7975 
Q 350.340663 209.7975 348.840663 209.7975 
L 339.162537 209.7975 
Q 337.662537 209.7975 337.662537 211.7975 
L 337.662537 224.5225 
Q 337.662537 226.5225 339.162537 226.5225 
L 348.840663 226.5225 
Q 350.340663 226.5225 350.340663 224.5225 
z
" clip-path="url(#p71db9c8d10)" style="fill: #ffffff; stroke: #ffffff; stroke-linejoin: miter"/>
      </g>
      <g clip-path="url(#p71db9c8d10)">
       <!-- 13 -->
       <g transform="translate(346.760975 224.5225) rotate(-90) scale(0.1 -0.1)">
        <use xlink:href="#DejaVuSans-31"/>
        <use xlink:href="#DejaVuSans-33" transform="translate(63.623047 0)"/>
       </g>
      </g>
     </g>
    </g>
    <g id="xtick_10"/>
    <g id="xtick_11"/>
   </g>
   <g id="matplotlib.axis_2">
    <g id="ytick_1"/>
    <g id="ytick_2">
     <g id="text_9">
      <!-- -6j -->
      <g transform="translate(362.289764 271.731391) scale(0.1 -0.1)">
       <defs>
        <path id="DejaVuSans-2d" d="M 313 2009 
L 1997 2009 
L 1997 1497 
L 313 1497 
L 313 2009 
z
" transform="scale(0.015625)"/>
        <path id="DejaVuSans-6a" d="M 603 3500 
L 1178 3500 
L 1178 -63 
Q 1178 -731 923 -1031 
Q 669 -1331 103 -1331 
L -116 -1331 
L -116 -844 
L 38 -844 
Q 366 -844 484 -692 
Q 603 -541 603 -63 
L 603 3500 
z
M 603 4863 
L 1178 4863 
L 1178 4134 
L 603 4134 
L 603 4863 
z
" transform="scale(0.015625)"/>
       </defs>
       <use xlink:href="#DejaVuSans-2d"/>
       <use xlink:href="#DejaVuSans-36" transform="translate(36.083984 0)"/>
       <use xlink:href="#DejaVuSans-6a" transform="translate(99.707031 0)"/>
      </g>
     </g>
    </g>
    <g id="ytick_3">
     <g id="text_10">
      <!-- -2.5j -->
      <g transform="translate(328.87041 328.94568) scale(0.1 -0.1)">
       <use xlink:href="#DejaVuSans-2d"/>
       <use xlink:href="#DejaVuSans-32" transform="translate(36.083984 0)"/>
       <use xlink:href="#DejaVuSans-2e" transform="translate(99.707031 0)"/>
       <use xlink:href="#DejaVuSans-35" transform="translate(131.494141 0)"/>
       <use xlink:href="#DejaVuSans-6a" transform="translate(195.117188 0)"/>
      </g>
     </g>
    </g>
    <g id="ytick_4">
     <g id="text_11">
      <!-- -1.5j -->
      <g transform="translate(277.730732 365.463281) scale(0.1 -0.1)">
       <use xlink:href="#DejaVuSans-2d"/>
       <use xlink:href="#DejaVuSans-31" transform="translate(36.083984 0)"/>
       <use xlink:href="#DejaVuSans-2e" transform="translate(99.707031 0)"/>
       <use xlink:href="#DejaVuSans-35" transform="translate(131.494141 0)"/>
       <use xlink:href="#DejaVuSans-6a" transform="translate(195.117188 0)"/>
      </g>
     </g>
    </g>
    <g id="ytick_5">
     <g id="text_12">
      <!-- -1j -->
      <g transform="translate(213.447134 377.453833) scale(0.1 -0.1)">
       <use xlink:href="#DejaVuSans-2d"/>
       <use xlink:href="#DejaVuSans-31" transform="translate(36.083984 0)"/>
       <use xlink:href="#DejaVuSans-6a" transform="translate(99.707031 0)"/>
      </g>
     </g>
    </g>
    <g id="ytick_6">
     <g id="text_13">
      <!-- -0.6j -->
      <g transform="translate(126.710062 358.97967) scale(0.1 -0.1)">
       <use xlink:href="#DejaVuSans-2d"/>
       <use xlink:href="#DejaVuSans-30" transform="translate(36.083984 0)"/>
       <use xlink:href="#DejaVuSans-2e" transform="translate(99.707031 0)"/>
       <use xlink:href="#DejaVuSans-36" transform="translate(131.494141 0)"/>
       <use xlink:href="#DejaVuSans-6a" transform="translate(195.117188 0)"/>
      </g>
     </g>
    </g>
    <g id="ytick_7">
     <g id="text_14">
      <!-- -0.3j -->
      <g transform="translate(71.911239 307.020923) scale(0.1 -0.1)">
       <use xlink:href="#DejaVuSans-2d"/>
       <use xlink:href="#DejaVuSans-30" transform="translate(36.083984 0)"/>
       <use xlink:href="#DejaVuSans-2e" transform="translate(99.707031 0)"/>
       <use xlink:href="#DejaVuSans-33" transform="translate(131.494141 0)"/>
       <use xlink:href="#DejaVuSans-6a" transform="translate(195.117188 0)"/>
      </g>
     </g>
    </g>
    <g id="ytick_8">
     <g id="text_15">
      <!-- 0 -->
      <g transform="translate(63.0023 220.919375) scale(0.1 -0.1)">
       <use xlink:href="#DejaVuSans-30"/>
      </g>
     </g>
    </g>
    <g id="ytick_9">
     <g id="text_16">
      <!-- 0.3j -->
      <g transform="translate(75.519052 134.817827) scale(0.1 -0.1)">
       <use xlink:href="#DejaVuSans-30"/>
       <use xlink:href="#DejaVuSans-2e" transform="translate(63.623047 0)"/>
       <use xlink:href="#DejaVuSans-33" transform="translate(95.410156 0)"/>
       <use xlink:href="#DejaVuSans-6a" transform="translate(159.033203 0)"/>
      </g>
     </g>
    </g>
    <g id="ytick_10">
     <g id="text_17">
      <!-- 0.6j -->
      <g transform="translate(130.317875 82.85908) scale(0.1 -0.1)">
       <use xlink:href="#DejaVuSans-30"/>
       <use xlink:href="#DejaVuSans-2e" transform="translate(63.623047 0)"/>
       <use xlink:href="#DejaVuSans-36" transform="translate(95.410156 0)"/>
       <use xlink:href="#DejaVuSans-6a" transform="translate(159.033203 0)"/>
      </g>
     </g>
    </g>
    <g id="ytick_11">
     <g id="text_18">
      <!-- 1j -->
      <g transform="translate(215.25104 64.384917) scale(0.1 -0.1)">
       <use xlink:href="#DejaVuSans-31"/>
       <use xlink:href="#DejaVuSans-6a" transform="translate(63.623047 0)"/>
      </g>
     </g>
    </g>
    <g id="ytick_12">
     <g id="text_19">
      <!-- 1.5j -->
      <g transform="translate(277.730732 76.375469) scale(0.1 -0.1)">
       <use xlink:href="#DejaVuSans-31"/>
       <use xlink:href="#DejaVuSans-2e" transform="translate(63.623047 0)"/>
       <use xlink:href="#DejaVuSans-35" transform="translate(95.410156 0)"/>
       <use xlink:href="#DejaVuSans-6a" transform="translate(159.033203 0)"/>
      </g>
     </g>
    </g>
    <g id="ytick_13">
     <g id="text_20">
      <!-- 2.5j -->
      <g transform="translate(328.87041 112.89307) scale(0.1 -0.1)">
       <use xlink:href="#DejaVuSans-32"/>
       <use xlink:href="#DejaVuSans-2e" transform="translate(63.623047 0)"/>
       <use xlink:href="#DejaVuSans-35" transform="translate(95.410156 0)"/>
       <use xlink:href="#DejaVuSans-6a" transform="translate(159.033203 0)"/>
      </g>
     </g>
    </g>
    <g id="ytick_14">
     <g id="text_21">
      <!-- 6j -->
      <g transform="translate(362.289764 170.107359) scale(0.1 -0.1)">
       <use xlink:href="#DejaVuSans-36"/>
       <use xlink:href="#DejaVuSans-6a" transform="translate(63.623047 0)"/>
      </g>
     </g>
    </g>
    <g id="ytick_15">
     <g id="text_22">
      <!-- ∞  -->
      <g transform="translate(370.4352 223.126875) scale(0.18 -0.18)">
       <defs>
        <path id="DejaVuSans-221e" d="M 2916 1091 
Q 2819 1203 2666 1466 
Q 2456 1091 2272 925 
Q 2041 725 1681 725 
Q 1259 725 981 1041 
Q 688 1372 688 1919 
Q 688 2444 981 2800 
Q 1244 3116 1688 3116 
Q 1916 3116 2084 3022 
Q 2281 2919 2416 2741 
Q 2541 2581 2666 2366 
Q 2875 2741 3059 2906 
Q 3291 3106 3650 3106 
Q 4072 3106 4350 2791 
Q 4644 2459 4644 1913 
Q 4644 1388 4350 1031 
Q 4088 716 3644 716 
Q 3416 716 3247 809 
Q 3078 894 2916 1091 
z
M 1647 1134 
Q 2163 1134 2472 1884 
Q 2075 2703 1647 2703 
Q 1334 2703 1175 2478 
Q 1003 2238 1003 1919 
Q 1003 1569 1175 1353 
Q 1350 1134 1647 1134 
z
M 3684 2697 
Q 3219 2697 2859 1947 
Q 3253 1128 3684 1128 
Q 3997 1128 4156 1353 
Q 4328 1594 4328 1913 
Q 4328 2263 4156 2478 
Q 3981 2697 3684 2697 
z
" transform="scale(0.015625)"/>
        <path id="DejaVuSans-20" transform="scale(0.015625)"/>
       </defs>
       <use xlink:href="#DejaVuSans-221e"/>
       <use xlink:href="#DejaVuSans-20" transform="translate(83.300781 0)"/>
      </g>
     </g>
    </g>
    <g id="ytick_16"/>
    <g id="ytick_17"/>
   </g>
   <g id="line2d_1">
    <path d="M 351.525886 158.777155 
C 345.068605 161.72393 339.810971 166.794674 336.632514 173.14112 
C 333.454057 179.487566 332.542482 186.734923 334.050283 193.670808 
C 335.558084 200.606693 339.396218 206.821505 344.922616 211.275591 
C 350.449015 215.729677 357.337315 218.16 364.4352 218.16 
" clip-path="url(#p71db9c8d10)" style="fill: none; stroke-dasharray: 0.15,1.5; stroke-dashoffset: 0; stroke: #666666; stroke-width: 0.75; stroke-linecap: round"/>
   </g>
   <g id="line2d_2">
    <path d="M 346.787427 149.333685 
C 339.651883 153.250451 334.019373 159.433437 330.783013 166.90224 
C 327.546653 174.371044 326.887046 182.708873 328.908782 190.593645 
C 330.930518 198.478418 335.520777 205.470128 341.951704 210.46014 
C 348.382632 215.450151 356.295356 218.16 364.4352 218.16 
" clip-path="url(#p71db9c8d10)" style="fill: none; stroke-dasharray: 0.15,1.5; stroke-dashoffset: 0; stroke: #666666; stroke-width: 0.75; stroke-linecap: round"/>
   </g>
   <g id="line2d_3">
    <path d="M 338.984097 136.71647 
C 331.154776 142.139376 325.259887 149.92521 322.164061 158.931988 
C 319.068235 167.938766 318.930612 177.703497 321.771377 186.793945 
C 324.612142 195.884392 330.285266 203.833265 337.958648 209.474665 
C 345.632029 215.116066 354.91122 218.16 364.4352 218.16 
" clip-path="url(#p71db9c8d10)" style="fill: none; stroke-dasharray: 0.15,1.5; stroke-dashoffset: 0; stroke: #666666; stroke-width: 0.75; stroke-linecap: round"/>
   </g>
   <g id="line2d_4">
    <path d="M 317.24833 111.989542 
C 309.009022 121.11616 303.591841 132.440109 301.656463 144.582417 
C 299.721085 156.724726 301.349394 169.171665 306.343103 180.40751 
C 311.336812 191.643355 319.484642 201.192728 329.794392 207.892758 
C 340.104142 214.592787 352.139618 218.16 364.4352 218.16 
" clip-path="url(#p71db9c8d10)" style="fill: none; stroke-dasharray: 0.15,1.5; stroke-dashoffset: 0; stroke: #666666; stroke-width: 0.75; stroke-linecap: round"/>
   </g>
   <g id="line2d_5">
    <path d="M 307.22112 103.73184 
C 299.252859 114.356188 294.399238 126.992947 293.20658 140.219719 
C 292.013923 153.446492 294.528723 166.747661 300.467914 178.626043 
C 306.407105 190.504425 315.53916 200.496967 326.836172 207.478904 
C 338.133185 214.460842 351.154765 218.16 364.4352 218.16 
" clip-path="url(#p71db9c8d10)" style="fill: none; stroke-dasharray: 0.15,1.5; stroke-dashoffset: 0; stroke: #666666; stroke-width: 0.75; stroke-linecap: round"/>
   </g>
   <g id="line2d_6">
    <path d="M 294.017871 94.929674 
C 286.703038 107.342724 282.798853 121.472018 282.702623 135.879701 
C 282.606393 150.287384 286.321496 164.467567 293.469868 176.977218 
C 300.61824 189.486869 310.948884 199.886744 323.410512 207.118507 
C 335.872141 214.350271 350.027195 218.16 364.4352 218.16 
" clip-path="url(#p71db9c8d10)" style="fill: none; stroke-dasharray: 0.15,1.5; stroke-dashoffset: 0; stroke: #666666; stroke-width: 0.75; stroke-linecap: round"/>
   </g>
   <g id="line2d_7">
    <path d="M 252.797971 78.613463 
C 249.031111 95.35506 249.078018 112.731539 252.935206 129.452555 
C 256.792395 146.173572 264.361967 161.814729 275.081819 175.214545 
C 285.801671 188.61436 299.399724 199.432733 314.86621 206.866311 
C 330.332697 214.299889 347.275063 218.16 364.4352 218.16 
" clip-path="url(#p71db9c8d10)" style="fill: none; stroke-dasharray: 0.15,1.5; stroke-dashoffset: 0; stroke: #666666; stroke-width: 0.75; stroke-linecap: round"/>
   </g>
   <g id="line2d_8">
    <path d="M 206.385255 75.91505 
C 210.505472 114.948685 228.943314 151.105059 258.117973 177.362252 
C 287.292632 203.619445 325.184711 218.16 364.4352 218.16 
" clip-path="url(#p71db9c8d10)" style="fill: none; stroke-dasharray: 0.15,1.5; stroke-dashoffset: 0; stroke: #666666; stroke-width: 0.75; stroke-linecap: round"/>
   </g>
   <g id="line2d_9">
    <path d="M 190.002029 78.613463 
C 198.912163 118.214057 221.047534 153.623906 252.743474 178.980658 
C 284.439413 204.33741 323.844592 218.16 364.4352 218.16 
" clip-path="url(#p71db9c8d10)" style="fill: none; stroke-dasharray: 0.15,1.5; stroke-dashoffset: 0; stroke: #666666; stroke-width: 0.75; stroke-linecap: round"/>
   </g>
   <g id="line2d_10">
    <path d="M 172.441643 83.76451 
C 186.789497 123.150776 212.915438 157.184041 247.256198 181.222574 
C 281.596959 205.261106 322.516959 218.16 364.4352 218.16 
" clip-path="url(#p71db9c8d10)" style="fill: none; stroke-dasharray: 0.15,1.5; stroke-dashoffset: 0; stroke: #666666; stroke-width: 0.75; stroke-linecap: round"/>
   </g>
   <g id="line2d_11">
    <path d="M 135.57888 103.73184 
C 162.22428 139.25904 196.780011 168.098436 236.500628 187.958744 
C 276.221245 207.819053 320.0262 218.16 364.4352 218.16 
" clip-path="url(#p71db9c8d10)" style="fill: none; stroke-dasharray: 0.15,1.5; stroke-dashoffset: 0; stroke: #666666; stroke-width: 0.75; stroke-linecap: round"/>
   </g>
   <g id="line2d_12">
    <path d="M 117.822786 119.515034 
C 150.764692 150.888278 189.392829 175.689114 231.630351 192.584123 
C 273.867872 209.479132 318.943997 218.16 364.4352 218.16 
" clip-path="url(#p71db9c8d10)" style="fill: none; stroke-dasharray: 0.15,1.5; stroke-dashoffset: 0; stroke: #666666; stroke-width: 0.75; stroke-linecap: round"/>
   </g>
   <g id="line2d_13">
    <path d="M 89.367508 163.146462 
C 132.840452 181.260188 177.996524 195.035541 224.177647 204.271765 
C 270.35877 213.50799 317.33951 218.16 364.4352 218.16 
" clip-path="url(#p71db9c8d10)" style="fill: none; stroke-dasharray: 0.15,1.5; stroke-dashoffset: 0; stroke: #666666; stroke-width: 0.75; stroke-linecap: round"/>
   </g>
   <g id="line2d_14">
    <path d="M 81.19718 189.836198 
C 127.786238 199.248129 174.815489 206.331998 222.109856 211.061435 
C 269.404224 215.790872 316.904949 218.16 364.4352 218.16 
" clip-path="url(#p71db9c8d10)" style="fill: none; stroke-dasharray: 0.15,1.5; stroke-dashoffset: 0; stroke: #666666; stroke-width: 0.75; stroke-linecap: round"/>
   </g>
   <g id="line2d_15">
    <path d="M 81.19718 246.483802 
C 127.786238 237.071871 174.815489 229.988002 222.109856 225.258565 
C 269.404224 220.529128 316.904949 218.16 364.4352 218.16 
" clip-path="url(#p71db9c8d10)" style="fill: none; stroke-dasharray: 0.15,1.5; stroke-dashoffset: 0; stroke: #666666; stroke-width: 0.75; stroke-linecap: round"/>
   </g>
   <g id="line2d_16">
    <path d="M 89.367508 273.173538 
C 132.840452 255.059812 177.996524 241.284459 224.177647 232.048235 
C 270.35877 222.81201 317.33951 218.16 364.4352 218.16 
" clip-path="url(#p71db9c8d10)" style="fill: none; stroke-dasharray: 0.15,1.5; stroke-dashoffset: 0; stroke: #666666; stroke-width: 0.75; stroke-linecap: round"/>
   </g>
   <g id="line2d_17">
    <path d="M 117.822786 316.804966 
C 150.764692 285.431722 189.392829 260.630886 231.630351 243.735877 
C 273.867872 226.840868 318.943997 218.16 364.4352 218.16 
" clip-path="url(#p71db9c8d10)" style="fill: none; stroke-dasharray: 0.15,1.5; stroke-dashoffset: 0; stroke: #666666; stroke-width: 0.75; stroke-linecap: round"/>
   </g>
   <g id="line2d_18">
    <path d="M 135.57888 332.58816 
C 162.22428 297.06096 196.780011 268.221564 236.500628 248.361256 
C 276.221245 228.500947 320.0262 218.16 364.4352 218.16 
" clip-path="url(#p71db9c8d10)" style="fill: none; stroke-dasharray: 0.15,1.5; stroke-dashoffset: 0; stroke: #666666; stroke-width: 0.75; stroke-linecap: round"/>
   </g>
   <g id="line2d_19">
    <path d="M 172.441643 352.55549 
C 186.789497 313.169224 212.915438 279.135959 247.256198 255.097426 
C 281.596959 231.058894 322.516959 218.16 364.4352 218.16 
" clip-path="url(#p71db9c8d10)" style="fill: none; stroke-dasharray: 0.15,1.5; stroke-dashoffset: 0; stroke: #666666; stroke-width: 0.75; stroke-linecap: round"/>
   </g>
   <g id="line2d_20">
    <path d="M 190.002029 357.706537 
C 198.912163 318.105943 221.047534 282.696094 252.743474 257.339342 
C 284.439413 231.98259 323.844592 218.16 364.4352 218.16 
" clip-path="url(#p71db9c8d10)" style="fill: none; stroke-dasharray: 0.15,1.5; stroke-dashoffset: 0; stroke: #666666; stroke-width: 0.75; stroke-linecap: round"/>
   </g>
   <g id="line2d_21">
    <path d="M 206.385255 360.40495 
C 210.505472 321.371315 228.943314 285.214941 258.117973 258.957748 
C 287.292632 232.700555 325.184711 218.16 364.4352 218.16 
" clip-path="url(#p71db9c8d10)" style="fill: none; stroke-dasharray: 0.15,1.5; stroke-dashoffset: 0; stroke: #666666; stroke-width: 0.75; stroke-linecap: round"/>
   </g>
   <g id="line2d_22">
    <path d="M 252.797971 357.706537 
C 249.031111 340.96494 249.078018 323.588461 252.935206 306.867445 
C 256.792395 290.146428 264.361967 274.505271 275.081819 261.105455 
C 285.801671 247.70564 299.399724 236.887267 314.86621 229.453689 
C 330.332697 222.020111 347.275063 218.16 364.4352 218.16 
" clip-path="url(#p71db9c8d10)" style="fill: none; stroke-dasharray: 0.15,1.5; stroke-dashoffset: 0; stroke: #666666; stroke-width: 0.75; stroke-linecap: round"/>
   </g>
   <g id="line2d_23">
    <path d="M 294.017871 341.390326 
C 286.703038 328.977276 282.798853 314.847982 282.702623 300.440299 
C 282.606393 286.032616 286.321496 271.852433 293.469868 259.342782 
C 300.61824 246.833131 310.948884 236.433256 323.410512 229.201493 
C 335.872141 221.969729 350.027195 218.16 364.4352 218.16 
" clip-path="url(#p71db9c8d10)" style="fill: none; stroke-dasharray: 0.15,1.5; stroke-dashoffset: 0; stroke: #666666; stroke-width: 0.75; stroke-linecap: round"/>
   </g>
   <g id="line2d_24">
    <path d="M 307.22112 332.58816 
C 299.252859 321.963812 294.399238 309.327053 293.20658 296.100281 
C 292.013923 282.873508 294.528723 269.572339 300.467914 257.693957 
C 306.407105 245.815575 315.53916 235.823033 326.836172 228.841096 
C 338.133185 221.859158 351.154765 218.16 364.4352 218.16 
" clip-path="url(#p71db9c8d10)" style="fill: none; stroke-dasharray: 0.15,1.5; stroke-dashoffset: 0; stroke: #666666; stroke-width: 0.75; stroke-linecap: round"/>
   </g>
   <g id="line2d_25">
    <path d="M 317.24833 324.330458 
C 309.009022 315.20384 303.591841 303.879891 301.656463 291.737583 
C 299.721085 279.595274 301.349394 267.148335 306.343103 255.91249 
C 311.336812 244.676645 319.484642 235.127272 329.794392 228.427242 
C 340.104142 221.727213 352.139618 218.16 364.4352 218.16 
" clip-path="url(#p71db9c8d10)" style="fill: none; stroke-dasharray: 0.15,1.5; stroke-dashoffset: 0; stroke: #666666; stroke-width: 0.75; stroke-linecap: round"/>
   </g>
   <g id="line2d_26">
    <path d="M 338.984097 299.60353 
C 331.154776 294.180624 325.259887 286.39479 322.164061 277.388012 
C 319.068235 268.381234 318.930612 258.616503 321.771377 249.526055 
C 324.612142 240.435608 330.285266 232.486735 337.958648 226.845335 
C 345.632029 221.203934 354.91122 218.16 364.4352 218.16 
" clip-path="url(#p71db9c8d10)" style="fill: none; stroke-dasharray: 0.15,1.5; stroke-dashoffset: 0; stroke: #666666; stroke-width: 0.75; stroke-linecap: round"/>
   </g>
   <g id="line2d_27">
    <path d="M 346.787427 286.986315 
C 339.651883 283.069549 334.019373 276.886563 330.783013 269.41776 
C 327.546653 261.948956 326.887046 253.611127 328.908782 245.726355 
C 330.930518 237.841582 335.520777 230.849872 341.951704 225.85986 
C 348.382632 220.869849 356.295356 218.16 364.4352 218.16 
" clip-path="url(#p71db9c8d10)" style="fill: none; stroke-dasharray: 0.15,1.5; stroke-dashoffset: 0; stroke: #666666; stroke-width: 0.75; stroke-linecap: round"/>
   </g>
   <g id="line2d_28">
    <path d="M 351.525886 277.542845 
C 345.068605 274.59607 339.810971 269.525326 336.632514 263.17888 
C 333.454057 256.832434 332.542482 249.585077 334.050283 242.649192 
C 335.558084 235.713307 339.396218 229.498495 344.922616 225.044409 
C 350.449015 220.590323 357.337315 218.16 364.4352 218.16 
" clip-path="url(#p71db9c8d10)" style="fill: none; stroke-dasharray: 0.15,1.5; stroke-dashoffset: 0; stroke: #666666; stroke-width: 0.75; stroke-linecap: round"/>
   </g>
   <g id="line2d_29">
    <path d="M 354.601223 270.28008 
C 348.745512 267.988809 343.870783 263.721517 340.824914 258.220429 
C 337.779046 252.719342 336.7495 246.323031 337.91535 240.144028 
C 339.081199 233.965026 342.37069 228.383627 347.21167 224.370624 
C 352.052649 220.357622 358.147173 218.16 364.4352 218.16 
" clip-path="url(#p71db9c8d10)" style="fill: none; stroke-dasharray: 0.15,1.5; stroke-dashoffset: 0; stroke: #666666; stroke-width: 0.75; stroke-linecap: round"/>
   </g>
   <g id="line2d_30">
    <path d="M 364.4352 218.16 
C 364.4352 220.432163 363.987633 222.682231 363.118114 224.781436 
C 362.248595 226.88064 360.974034 228.788156 359.367372 230.394818 
C 357.760711 232.001479 355.853195 233.276041 353.75399 234.14556 
C 351.654786 235.015079 349.404717 235.462645 347.132555 235.462645 
C 344.860392 235.462645 342.610324 235.015079 340.511119 234.14556 
C 338.411915 233.276041 336.504399 232.001479 334.897737 230.394818 
C 333.291076 228.788156 332.016514 226.88064 331.146995 224.781436 
C 330.277476 222.682231 329.82991 220.432163 329.82991 218.16 
C 329.82991 215.887837 330.277476 213.637769 331.146995 211.538564 
C 332.016514 209.43936 333.291076 207.531844 334.897737 205.925182 
C 336.504399 204.318521 338.411915 203.043959 340.511119 202.17444 
C 342.610324 201.304921 344.860392 200.857355 347.132555 200.857355 
C 349.404717 200.857355 351.654786 201.304921 353.75399 202.17444 
C 355.853195 203.043959 357.760711 204.318521 359.367372 205.925182 
C 360.974034 207.531844 362.248595 209.43936 363.118114 211.538564 
C 363.987633 213.637769 364.4352 215.887837 364.4352 218.16 
" clip-path="url(#p71db9c8d10)" style="fill: none; stroke-dasharray: 0.15,1.5; stroke-dashoffset: 0; stroke: #666666; stroke-width: 0.75; stroke-linecap: round"/>
   </g>
   <g id="line2d_31">
    <path d="M 364.4352 218.16 
C 364.4352 221.993309 363.680122 225.789343 362.213178 229.330858 
C 360.746235 232.872373 358.595954 236.090495 355.885396 238.801053 
C 353.174837 241.511611 349.956715 243.661892 346.4152 245.128836 
C 342.873685 246.595779 339.077651 247.350857 335.244343 247.350857 
C 331.411034 247.350857 327.615 246.595779 324.073485 245.128835 
C 320.53197 243.661892 317.313848 241.511611 314.60329 238.801053 
C 311.892732 236.090495 309.742451 232.872372 308.275507 229.330857 
C 306.808564 225.789342 306.053486 221.993308 306.053486 218.16 
C 306.053486 214.326692 306.808564 210.530658 308.275507 206.989143 
C 309.742451 203.447628 311.892732 200.229505 314.60329 197.518947 
C 317.313848 194.808389 320.53197 192.658108 324.073485 191.191165 
C 327.615 189.724221 331.411034 188.969143 335.244343 188.969143 
C 339.077651 188.969143 342.873685 189.724221 346.4152 191.191164 
C 349.956715 192.658108 353.174837 194.808389 355.885396 197.518947 
C 358.595954 200.229505 360.746235 203.447627 362.213178 206.989142 
C 363.680122 210.530657 364.4352 214.326691 364.4352 218.16 
" clip-path="url(#p71db9c8d10)" style="fill: none; stroke-dasharray: 0.15,1.5; stroke-dashoffset: 0; stroke: #666666; stroke-width: 0.75; stroke-linecap: round"/>
   </g>
   <g id="line2d_32">
    <path d="M 364.4352 218.16 
C 364.4352 222.428912 363.594317 226.656313 361.960676 230.600273 
C 360.327034 234.544233 357.932403 238.128051 354.913827 241.146627 
C 351.895251 244.165204 348.311433 246.559834 344.367473 248.193476 
C 340.423513 249.827118 336.196111 250.668 331.9272 250.668 
C 327.658288 250.668 323.430887 249.827117 319.486927 248.193476 
C 315.542967 246.559834 311.959149 244.165203 308.940573 241.146627 
C 305.921996 238.128051 303.527366 234.544233 301.893724 230.600273 
C 300.260082 226.656313 299.4192 222.428911 299.4192 218.16 
C 299.4192 213.891089 300.260082 209.663687 301.893724 205.719727 
C 303.527366 201.775767 305.921996 198.191949 308.940573 195.173373 
C 311.959149 192.154797 315.542967 189.760166 319.486927 188.126524 
C 323.430887 186.492883 327.658288 185.652 331.9272 185.652 
C 336.196111 185.652 340.423513 186.492882 344.367473 188.126524 
C 348.311433 189.760166 351.895251 192.154796 354.913827 195.173373 
C 357.932403 198.191949 360.327034 201.775767 361.960676 205.719727 
C 363.594317 209.663687 364.4352 213.891088 364.4352 218.16 
" clip-path="url(#p71db9c8d10)" style="fill: none; stroke-dasharray: 0.15,1.5; stroke-dashoffset: 0; stroke: #666666; stroke-width: 0.75; stroke-linecap: round"/>
   </g>
   <g id="line2d_33">
    <path d="M 364.4352 218.16 
C 364.4352 222.976208 363.486512 227.745584 361.643429 232.19518 
C 359.800346 236.644776 357.098711 240.688058 353.693138 244.093631 
C 350.287565 247.499204 346.244283 250.200839 341.794687 252.043922 
C 337.345092 253.887004 332.575715 254.835692 327.759508 254.835692 
C 322.9433 254.835692 318.173924 253.887004 313.724328 252.043921 
C 309.274732 250.200838 305.23145 247.499204 301.825877 244.093631 
C 298.420304 240.688058 295.718669 236.644776 293.875586 232.19518 
C 292.032503 227.745584 291.083815 222.976208 291.083815 218.16 
C 291.083815 213.343792 292.032503 208.574416 293.875586 204.12482 
C 295.718669 199.675224 298.420304 195.631942 301.825877 192.226369 
C 305.23145 188.820796 309.274732 186.119162 313.724328 184.276079 
C 318.173924 182.432996 322.9433 181.484308 327.759508 181.484308 
C 332.575715 181.484308 337.345092 182.432996 341.794687 184.276078 
C 346.244283 186.119161 350.287565 188.820796 353.693138 192.226369 
C 357.098711 195.631942 359.800346 199.675224 361.643429 204.12482 
C 363.486512 208.574416 364.4352 213.343792 364.4352 218.16 
" clip-path="url(#p71db9c8d10)" style="fill: none; stroke-dasharray: 0.15,1.5; stroke-dashoffset: 0; stroke: #666666; stroke-width: 0.75; stroke-linecap: round"/>
   </g>
   <g id="line2d_34">
    <path d="M 364.4352 218.16 
C 364.4352 224.2191 363.241689 230.219283 360.922972 235.817162 
C 358.604255 241.41504 355.205424 246.50175 350.920993 250.786181 
C 346.636563 255.070612 341.549853 258.469442 335.951974 260.788159 
C 330.354096 263.106877 324.353913 264.300387 318.294813 264.300387 
C 312.235713 264.300387 306.23553 263.106876 300.637651 260.788159 
C 295.039773 258.469442 289.953063 255.070611 285.668632 250.786181 
C 281.384201 246.50175 277.985371 241.41504 275.666654 235.817162 
C 273.347936 230.219283 272.154426 224.2191 272.154426 218.16 
C 272.154426 212.1009 273.347936 206.100717 275.666654 200.502838 
C 277.985371 194.90496 281.384201 189.81825 285.668632 185.533819 
C 289.953063 181.249389 295.039773 177.850558 300.637651 175.531841 
C 306.23553 173.213124 312.235713 172.019613 318.294813 172.019613 
C 324.353913 172.019613 330.354096 173.213123 335.951974 175.531841 
C 341.549853 177.850558 346.636563 181.249388 350.920993 185.533819 
C 355.205424 189.81825 358.604255 194.90496 360.922972 200.502838 
C 363.241689 206.100717 364.4352 212.1009 364.4352 218.16 
" clip-path="url(#p71db9c8d10)" style="fill: none; stroke-dasharray: 0.15,1.5; stroke-dashoffset: 0; stroke: #666666; stroke-width: 0.75; stroke-linecap: round"/>
   </g>
   <g id="line2d_35">
    <path d="M 364.4352 218.16 
C 364.4352 224.86829 363.113813 231.511349 360.546662 237.709001 
C 357.979511 243.906652 354.21652 249.538366 349.473043 254.281843 
C 344.729566 259.02532 339.097852 262.788311 332.9002 265.355462 
C 326.702549 267.922613 320.059489 269.244 313.3512 269.244 
C 306.64291 269.244 299.999851 267.922613 293.802199 265.355462 
C 287.604548 262.788311 281.972834 259.02532 277.229357 254.281843 
C 272.48588 249.538366 268.722889 243.906652 266.155738 237.709 
C 263.588587 231.511349 262.2672 224.868289 262.2672 218.16 
C 262.2672 211.451711 263.588587 204.808651 266.155738 198.611 
C 268.722889 192.413348 272.48588 186.781634 277.229357 182.038157 
C 281.972834 177.29468 287.604548 173.531689 293.802199 170.964538 
C 299.999851 168.397387 306.64291 167.076 313.3512 167.076 
C 320.059489 167.076 326.702549 168.397387 332.9002 170.964538 
C 339.097852 173.531689 344.729566 177.29468 349.473043 182.038157 
C 354.21652 186.781634 357.979511 192.413348 360.546662 198.610999 
C 363.113813 204.808651 364.4352 211.45171 364.4352 218.16 
" clip-path="url(#p71db9c8d10)" style="fill: none; stroke-dasharray: 0.15,1.5; stroke-dashoffset: 0; stroke: #666666; stroke-width: 0.75; stroke-linecap: round"/>
   </g>
   <g id="line2d_36">
    <path d="M 364.4352 218.16 
C 364.4352 226.508094 362.790808 234.775013 359.59613 242.487645 
C 356.401453 250.200278 351.71862 257.208633 345.815626 263.111627 
C 339.912633 269.01462 332.904278 273.697454 325.191645 276.892131 
C 317.479012 280.086808 309.212093 281.7312 300.864 281.7312 
C 292.515906 281.7312 284.248988 280.086808 276.536355 276.89213 
C 268.823722 273.697453 261.815367 269.01462 255.912373 263.111627 
C 250.00938 257.208633 245.326547 250.200278 242.131869 242.487645 
C 238.937192 234.775012 237.2928 226.508093 237.2928 218.16 
C 237.2928 209.811907 238.937192 201.544988 242.131869 193.832355 
C 245.326547 186.119722 250.00938 179.111367 255.912373 173.208373 
C 261.815367 167.30538 268.823722 162.622547 276.536355 159.42787 
C 284.248988 156.233192 292.515906 154.5888 300.864 154.5888 
C 309.212093 154.5888 317.479012 156.233192 325.191645 159.427869 
C 332.904278 162.622546 339.912633 167.30538 345.815626 173.208373 
C 351.71862 179.111367 356.401453 186.119722 359.59613 193.832355 
C 362.790808 201.544987 364.4352 209.811906 364.4352 218.16 
" clip-path="url(#p71db9c8d10)" style="fill: none; stroke-dasharray: 0.15,1.5; stroke-dashoffset: 0; stroke: #666666; stroke-width: 0.75; stroke-linecap: round"/>
   </g>
   <g id="line2d_37">
    <path d="M 364.4352 218.16 
C 364.4352 228.0459 362.487893 237.835673 358.704723 246.969054 
C 354.921553 256.102434 349.376092 264.401803 342.385705 271.39219 
C 335.395318 278.382577 327.09595 283.928037 317.962569 287.711207 
C 308.829188 291.494377 299.039416 293.441684 289.153516 293.441684 
C 279.267615 293.441684 269.477843 291.494377 260.344462 287.711207 
C 251.211082 283.928037 242.911713 278.382576 235.921326 271.392189 
C 228.930939 264.401802 223.385479 256.102434 219.602309 246.969053 
C 215.819138 237.835672 213.871832 228.0459 213.871832 218.16 
C 213.871832 208.2741 215.819138 198.484328 219.602309 189.350947 
C 223.385479 180.217566 228.930939 171.918198 235.921326 164.927811 
C 242.911713 157.937424 251.211082 152.391963 260.344462 148.608793 
C 269.477843 144.825623 279.267615 142.878316 289.153516 142.878316 
C 299.039416 142.878316 308.829188 144.825623 317.962569 148.608793 
C 327.09595 152.391963 335.395318 157.937423 342.385705 164.92781 
C 349.376092 171.918197 354.921553 180.217566 358.704723 189.350946 
C 362.487893 198.484327 364.4352 208.2741 364.4352 218.16 
" clip-path="url(#p71db9c8d10)" style="fill: none; stroke-dasharray: 0.15,1.5; stroke-dashoffset: 0; stroke: #666666; stroke-width: 0.75; stroke-linecap: round"/>
   </g>
   <g id="line2d_38">
    <path d="M 364.4352 218.16 
C 364.4352 228.595117 362.379709 238.928766 358.386363 248.569557 
C 354.393017 258.210347 348.539475 266.970792 341.160733 274.349533 
C 333.781991 281.728275 325.021547 287.581817 315.380756 291.575163 
C 305.739965 295.56851 295.406317 297.624 284.9712 297.624 
C 274.536083 297.624 264.202435 295.568509 254.561644 291.575163 
C 244.920853 287.581817 236.160409 281.728275 228.781667 274.349533 
C 221.402925 266.970791 215.549383 258.210347 211.556037 248.569556 
C 207.56269 238.928765 205.5072 228.595117 205.5072 218.16 
C 205.5072 207.724883 207.56269 197.391235 211.556037 187.750444 
C 215.549383 178.109653 221.402925 169.349209 228.781667 161.970467 
C 236.160409 154.591725 244.920853 148.738183 254.561644 144.744837 
C 264.202435 140.751491 274.536083 138.696 284.9712 138.696 
C 295.406317 138.696 305.739965 140.75149 315.380756 144.744837 
C 325.021547 148.738183 333.781991 154.591725 341.160733 161.970467 
C 348.539475 169.349208 354.393017 178.109653 358.386363 187.750443 
C 362.379709 197.391234 364.4352 207.724883 364.4352 218.16 
" clip-path="url(#p71db9c8d10)" style="fill: none; stroke-dasharray: 0.15,1.5; stroke-dashoffset: 0; stroke: #666666; stroke-width: 0.75; stroke-linecap: round"/>
   </g>
   <g id="line2d_39">
    <path d="M 364.4352 218.16 
C 364.4352 229.208948 362.258798 240.150458 358.030549 250.358354 
C 353.8023 260.56625 347.604432 269.842015 339.791647 277.6548 
C 331.978861 285.467586 322.703097 291.665453 312.495201 295.893702 
C 302.287304 300.121951 291.345794 302.298353 280.296847 302.298353 
C 269.2479 302.298353 258.306389 300.121951 248.098493 295.893702 
C 237.890597 291.665453 228.614833 285.467585 220.802047 277.6548 
C 212.989262 269.842014 206.791394 260.56625 202.563145 250.358354 
C 198.334896 240.150457 196.158494 229.208947 196.158494 218.16 
C 196.158494 207.111053 198.334896 196.169543 202.563145 185.961646 
C 206.791394 175.75375 212.989262 166.477986 220.802047 158.6652 
C 228.614833 150.852415 237.890597 144.654547 248.098493 140.426298 
C 258.306389 136.198049 269.2479 134.021647 280.296847 134.021647 
C 291.345794 134.021647 302.287304 136.198049 312.495201 140.426298 
C 322.703097 144.654547 331.978861 150.852414 339.791647 158.6652 
C 347.604432 166.477985 353.8023 175.75375 358.030549 185.961646 
C 362.258798 196.169542 364.4352 207.111052 364.4352 218.16 
" clip-path="url(#p71db9c8d10)" style="fill: none; stroke-dasharray: 0.15,1.5; stroke-dashoffset: 0; stroke: #666666; stroke-width: 0.75; stroke-linecap: round"/>
   </g>
   <g id="line2d_40">
    <path d="M 364.4352 218.16 
C 364.4352 230.682141 361.968611 243.082519 357.176596 254.651468 
C 352.38458 266.220417 345.36033 276.73295 336.50584 285.58744 
C 327.651349 294.44193 317.138816 301.46618 305.569867 306.258196 
C 294.000918 311.050211 281.60054 313.5168 269.0784 313.5168 
C 256.55626 313.5168 244.155881 311.050211 232.586932 306.258196 
C 221.017983 301.46618 210.50545 294.44193 201.65096 285.58744 
C 192.79647 276.73295 185.77222 266.220417 180.980204 254.651467 
C 176.188189 243.082518 173.7216 230.68214 173.7216 218.16 
C 173.7216 205.63786 176.188189 193.237482 180.980204 181.668533 
C 185.77222 170.099583 192.79647 159.58705 201.65096 150.73256 
C 210.50545 141.87807 221.017983 134.85382 232.586932 130.061804 
C 244.155881 125.269789 256.55626 122.8032 269.0784 122.8032 
C 281.60054 122.8032 294.000918 125.269789 305.569867 130.061804 
C 317.138816 134.85382 327.651349 141.87807 336.50584 150.73256 
C 345.36033 159.58705 352.38458 170.099583 357.176596 181.668532 
C 361.968611 193.237481 364.4352 205.637859 364.4352 218.16 
" clip-path="url(#p71db9c8d10)" style="fill: none; stroke-dasharray: 0.15,1.5; stroke-dashoffset: 0; stroke: #666666; stroke-width: 0.75; stroke-linecap: round"/>
   </g>
   <g id="line2d_41">
    <path d="M 364.4352 218.16 
C 364.4352 231.576579 361.792426 244.862699 356.658124 257.258001 
C 351.523822 269.653304 343.997839 280.916732 334.510885 290.403686 
C 325.023932 299.89064 313.760503 307.416622 301.365201 312.550924 
C 288.969898 317.685227 275.683779 320.328 262.2672 320.328 
C 248.850621 320.328 235.564502 317.685226 223.169199 312.550924 
C 210.773896 307.416622 199.510468 299.890639 190.023514 290.403686 
C 180.53656 280.916732 173.010578 269.653303 167.876276 257.258001 
C 162.741973 244.862698 160.0992 231.576579 160.0992 218.16 
C 160.0992 204.743421 162.741973 191.457302 167.876276 179.061999 
C 173.010578 166.666697 180.53656 155.403268 190.023514 145.916314 
C 199.510468 136.429361 210.773896 128.903378 223.169199 123.769076 
C 235.564502 118.634774 248.850621 115.992 262.2672 115.992 
C 275.683779 115.992 288.969898 118.634773 301.365201 123.769076 
C 313.760503 128.903378 325.023932 136.42936 334.510885 145.916314 
C 343.997839 155.403268 351.523822 166.666696 356.658124 179.061999 
C 361.792426 191.457301 364.4352 204.743421 364.4352 218.16 
" clip-path="url(#p71db9c8d10)" style="fill: none; stroke-dasharray: 0.15,1.5; stroke-dashoffset: 0; stroke: #666666; stroke-width: 0.75; stroke-linecap: round"/>
   </g>
   <g id="line2d_42">
    <path d="M 364.4352 218.16 
C 364.4352 233.186569 361.475294 248.067022 355.724875 261.949761 
C 349.974456 275.8325 341.545356 288.44754 330.919968 299.072928 
C 320.294579 309.698316 307.67954 318.127416 293.796801 323.877835 
C 279.914062 329.628254 265.033608 332.58816 250.00704 332.58816 
C 234.980472 332.58816 220.100018 329.628254 206.217279 323.877835 
C 192.33454 318.127416 179.7195 309.698316 169.094112 299.072928 
C 158.468724 288.44754 150.039624 275.8325 144.289205 261.949761 
C 138.538786 248.067022 135.57888 233.186568 135.57888 218.16 
C 135.57888 203.133432 138.538786 188.252978 144.289205 174.370239 
C 150.039624 160.4875 158.468724 147.87246 169.094112 137.247072 
C 179.7195 126.621684 192.33454 118.192584 206.217279 112.442165 
C 220.100018 106.691746 234.980472 103.73184 250.00704 103.73184 
C 265.033608 103.73184 279.914062 106.691746 293.796801 112.442165 
C 307.67954 118.192584 320.294579 126.621684 330.919968 137.247072 
C 341.545356 147.87246 349.974456 160.4875 355.724875 174.370239 
C 361.475294 188.252978 364.4352 203.133431 364.4352 218.16 
" clip-path="url(#p71db9c8d10)" style="fill: none; stroke-dasharray: 0.15,1.5; stroke-dashoffset: 0; stroke: #666666; stroke-width: 0.75; stroke-linecap: round"/>
   </g>
   <g id="line2d_43">
    <path d="M 364.4352 218.16 
C 364.4352 233.812676 361.351964 249.313148 355.361945 263.774335 
C 349.371925 278.235521 340.591613 291.376187 329.5235 302.4443 
C 318.455387 313.512413 305.314721 322.292725 290.853534 328.282745 
C 276.392348 334.272764 260.891875 337.356 245.2392 337.356 
C 229.586525 337.356 214.086052 334.272764 199.624865 328.282745 
C 185.163679 322.292725 172.023013 313.512413 160.9549 302.4443 
C 149.886787 291.376187 141.106475 278.235521 135.116455 263.774334 
C 129.126436 249.313148 126.0432 233.812675 126.0432 218.16 
C 126.0432 202.507325 129.126436 187.006852 135.116455 172.545666 
C 141.106475 158.084479 149.886787 144.943813 160.9549 133.8757 
C 172.023013 122.807587 185.163679 114.027275 199.624865 108.037255 
C 214.086052 102.047236 229.586525 98.964 245.2392 98.964 
C 260.891875 98.964 276.392348 102.047236 290.853534 108.037255 
C 305.314721 114.027275 318.455387 122.807587 329.5235 133.8757 
C 340.591613 144.943813 349.371925 158.084479 355.361945 172.545665 
C 361.351964 187.006852 364.4352 202.507324 364.4352 218.16 
" clip-path="url(#p71db9c8d10)" style="fill: none; stroke-dasharray: 0.15,1.5; stroke-dashoffset: 0; stroke: #666666; stroke-width: 0.75; stroke-linecap: round"/>
   </g>
   <g id="line2d_44">
    <path d="M 364.4352 218.16 
C 364.4352 234.493227 361.21791 250.667633 354.967455 265.757567 
C 348.717 280.8475 339.554935 294.5595 328.0056 306.108835 
C 316.456265 317.65817 302.744265 326.820235 287.654331 333.07069 
C 272.564398 339.321145 256.389991 342.538435 240.056765 342.538435 
C 223.723539 342.538435 207.549132 339.321145 192.459199 333.07069 
C 177.369265 326.820235 163.657266 317.65817 152.10793 306.108835 
C 140.558595 294.559499 131.39653 280.8475 125.146075 265.757566 
C 118.89562 250.667633 115.67833 234.493226 115.67833 218.16 
C 115.67833 201.826774 118.89562 185.652367 125.146075 170.562434 
C 131.39653 155.4725 140.558595 141.760501 152.10793 130.211165 
C 163.657266 118.66183 177.369265 109.499765 192.459199 103.24931 
C 207.549132 96.998855 223.723539 93.781565 240.056765 93.781565 
C 256.389991 93.781565 272.564398 96.998855 287.654331 103.24931 
C 302.744265 109.499765 316.456265 118.66183 328.0056 130.211165 
C 339.554935 141.7605 348.717 155.4725 354.967455 170.562433 
C 361.21791 185.652367 364.4352 201.826773 364.4352 218.16 
" clip-path="url(#p71db9c8d10)" style="fill: none; stroke-dasharray: 0.15,1.5; stroke-dashoffset: 0; stroke: #666666; stroke-width: 0.75; stroke-linecap: round"/>
   </g>
   <g id="line2d_45">
    <path d="M 364.4352 218.16 
C 364.4352 236.048772 360.911502 253.763598 354.065765 270.290668 
C 347.220029 286.817738 337.185386 301.835643 324.536114 314.484914 
C 311.886842 327.134186 296.868938 337.168829 280.341868 344.014566 
C 263.814798 350.860302 246.099972 354.384 228.2112 354.384 
C 210.322428 354.384 192.607602 350.860302 176.080532 344.014565 
C 159.553462 337.168829 144.535558 327.134186 131.886286 314.484914 
C 119.237014 301.835642 109.202371 286.817738 102.356635 270.290668 
C 95.510898 253.763598 91.9872 236.048772 91.9872 218.16 
C 91.9872 200.271228 95.510898 182.556402 102.356635 166.029332 
C 109.202371 149.502262 119.237014 134.484358 131.886286 121.835086 
C 144.535558 109.185814 159.553462 99.151171 176.080532 92.305435 
C 192.607602 85.459698 210.322428 81.936 228.2112 81.936 
C 246.099972 81.936 263.814798 85.459698 280.341868 92.305434 
C 296.868938 99.151171 311.886842 109.185814 324.536114 121.835086 
C 337.185386 134.484357 347.220029 149.502262 354.065765 166.029332 
C 360.911502 182.556402 364.4352 200.271228 364.4352 218.16 
" clip-path="url(#p71db9c8d10)" style="fill: none; stroke-dasharray: 0.15,1.5; stroke-dashoffset: 0; stroke: #666666; stroke-width: 0.75; stroke-linecap: round"/>
   </g>
   <g id="line2d_46">
    <path d="M 78.3648 218.16 
L 364.4352 218.16 
" clip-path="url(#p71db9c8d10)" style="fill: none; stroke: #333333; stroke-linecap: square"/>
   </g>
   <g id="line2d_47">
    <path d="M 101.985292 139.425028 
C 140.724966 164.96767 182.986824 184.718597 227.432326 198.052248 
C 271.877828 211.385898 318.032733 218.16 364.4352 218.16 
" clip-path="url(#p71db9c8d10)" style="fill: none; stroke: #333333; stroke-linecap: square"/>
   </g>
   <g id="line2d_48">
    <path d="M 101.985292 296.894972 
C 140.724966 271.35233 182.986824 251.601403 227.432326 238.267752 
C 271.877828 224.934102 318.032733 218.16 364.4352 218.16 
" clip-path="url(#p71db9c8d10)" style="fill: none; stroke: #333333; stroke-linecap: square"/>
   </g>
   <g id="line2d_49">
    <path d="M 221.4 75.1248 
C 221.4 113.045545 236.480024 149.451944 263.29404 176.26596 
C 290.108056 203.079975 326.514455 218.16 364.4352 218.16 
" clip-path="url(#p71db9c8d10)" style="fill: none; stroke: #333333; stroke-linecap: square"/>
   </g>
   <g id="line2d_50">
    <path d="M 221.4 361.1952 
C 221.4 323.274455 236.480024 286.868056 263.29404 260.05404 
C 290.108056 233.240025 326.514455 218.16 364.4352 218.16 
" clip-path="url(#p71db9c8d10)" style="fill: none; stroke: #333333; stroke-linecap: square"/>
   </g>
   <g id="line2d_51">
    <path d="M 154.089318 91.952471 
C 174.420354 130.073164 204.736872 161.95946 241.783528 184.187453 
C 278.830183 206.415447 321.231747 218.16 364.4352 218.16 
" clip-path="url(#p71db9c8d10)" style="fill: none; stroke: #333333; stroke-linecap: square"/>
   </g>
   <g id="line2d_52">
    <path d="M 154.089318 344.367529 
C 174.420354 306.246836 204.736872 274.36054 241.783528 252.132547 
C 278.830183 229.904553 321.231747 218.16 364.4352 218.16 
" clip-path="url(#p71db9c8d10)" style="fill: none; stroke: #333333; stroke-linecap: square"/>
   </g>
   <g id="line2d_53">
    <path d="M 276.413538 86.127508 
C 270.376042 100.6175 268.008911 116.376594 269.523021 132.000892 
C 271.037131 147.625191 276.386145 162.636533 285.093546 175.697636 
C 293.800948 188.758738 305.600258 199.469882 319.440338 206.876868 
C 333.280418 214.283854 348.737708 218.16 364.4352 218.16 
" clip-path="url(#p71db9c8d10)" style="fill: none; stroke: #333333; stroke-linecap: square"/>
   </g>
   <g id="line2d_54">
    <path d="M 276.413538 350.192492 
C 270.376042 335.7025 268.008911 319.943406 269.523021 304.319108 
C 271.037131 288.694809 276.386145 273.683467 285.093546 260.622364 
C 293.800948 247.561262 305.600258 236.850118 319.440338 229.443132 
C 333.280418 222.036146 348.737708 218.16 364.4352 218.16 
" clip-path="url(#p71db9c8d10)" style="fill: none; stroke: #333333; stroke-linecap: square"/>
   </g>
   <g id="line2d_55">
    <path d="M 324.977214 119.515034 
C 316.697927 127.400069 310.969215 137.5887 308.533987 148.759645 
C 306.098758 159.93059 307.067039 171.579143 311.31326 182.194696 
C 315.559481 192.810249 322.891797 201.913187 332.359338 208.323025 
C 341.82688 214.732862 353.001899 218.16 364.4352 218.16 
" clip-path="url(#p71db9c8d10)" style="fill: none; stroke: #333333; stroke-linecap: square"/>
   </g>
   <g id="line2d_56">
    <path d="M 324.977214 316.804966 
C 316.697927 308.919931 310.969215 298.7313 308.533987 287.560355 
C 306.098758 276.38941 307.067039 264.740857 311.31326 254.125304 
C 315.559481 243.509751 322.891797 234.406813 332.359338 227.996975 
C 341.82688 221.587138 353.001899 218.16 364.4352 218.16 
" clip-path="url(#p71db9c8d10)" style="fill: none; stroke: #333333; stroke-linecap: square"/>
   </g>
   <g id="line2d_57">
    <path d="M 356.703568 171.770205 
C 351.366794 173.599956 346.849032 177.266086 343.959672 182.111779 
C 341.070312 186.957472 339.992863 192.67497 340.920358 198.23994 
C 341.847853 203.804911 344.721385 208.863912 349.026139 212.510586 
C 353.330894 216.15726 358.793467 218.16 364.4352 218.16 
" clip-path="url(#p71db9c8d10)" style="fill: none; stroke: #333333; stroke-linecap: square"/>
   </g>
   <g id="line2d_58">
    <path d="M 356.703568 264.549795 
C 351.366794 262.720044 346.849032 259.053914 343.959672 254.208221 
C 341.070312 249.362528 339.992863 243.64503 340.920358 238.08006 
C 341.847853 232.515089 344.721385 227.456088 349.026139 223.809414 
C 353.330894 220.16274 358.793467 218.16 364.4352 218.16 
" clip-path="url(#p71db9c8d10)" style="fill: none; stroke: #333333; stroke-linecap: square"/>
   </g>
   <g id="line2d_59">
    <path d="M 364.4352 218.16 
C 364.4352 218.16 364.4352 218.16 364.4352 218.16 
C 364.4352 218.16 364.4352 218.16 364.4352 218.16 
C 364.4352 218.16 364.4352 218.16 364.4352 218.16 
C 364.4352 218.16 364.4352 218.16 364.4352 218.16 
" clip-path="url(#p71db9c8d10)" style="fill: none; stroke: #333333; stroke-linecap: square"/>
   </g>
   <g id="line2d_60">
    <path d="M 364.4352 218.16 
C 364.4352 218.16 364.4352 218.16 364.4352 218.16 
C 364.4352 218.16 364.4352 218.16 364.4352 218.16 
C 364.4352 218.16 364.4352 218.16 364.4352 218.16 
C 364.4352 218.16 364.4352 218.16 364.4352 218.16 
" clip-path="url(#p71db9c8d10)" style="fill: none; stroke: #333333; stroke-linecap: square"/>
   </g>
   <g id="line2d_61">
    <path d="M 273.487963 342.17896 
C 254.010263 348.317386 233.357654 349.781765 213.208686 346.453077 
C 193.059718 343.124389 173.975462 335.095327 157.507 323.018454 
C 141.038538 310.941582 127.644454 295.153196 118.413356 276.936502 
C 109.182259 258.719808 104.3712 238.582073 104.3712 218.16 
C 104.3712 197.737927 109.182259 177.600192 118.413356 159.383498 
C 127.644454 141.166804 141.038538 125.378418 157.507 113.301546 
C 173.975462 101.224673 193.059718 93.195611 213.208686 89.866923 
C 233.357654 86.538235 254.010263 88.002614 273.487963 94.14104 
" clip-path="url(#p71db9c8d10)" style="fill: none; stroke: #333333; stroke-linecap: square"/>
   </g>
   <g id="line2d_62">
    <path d="M 317.597477 308.232544 
C 301.114202 319.796195 281.768686 326.616321 261.677729 327.946659 
C 241.586771 329.276997 221.5109 325.067187 203.64683 315.777871 
C 185.78276 306.488555 170.806723 292.471372 160.357407 275.260092 
C 149.908091 258.048812 144.381046 238.294954 144.381046 218.16 
C 144.381046 198.025046 149.908091 178.271188 160.357407 161.059908 
C 170.806723 143.848628 185.78276 129.831445 203.64683 120.542129 
C 221.5109 111.252813 241.586771 107.043003 261.677729 108.373341 
C 281.768686 109.703679 301.114202 116.523805 317.597477 128.087456 
" clip-path="url(#p71db9c8d10)" style="fill: none; stroke: #333333; stroke-linecap: square"/>
   </g>
   <g id="line2d_63">
    <path d="M 312.481438 299.337753 
C 298.861367 305.620011 283.87676 308.374614 268.912905 307.346907 
C 253.949051 306.3192 239.481733 301.541859 226.848417 293.456536 
C 214.2151 285.371214 203.817469 274.234987 196.616756 261.077371 
C 189.416044 247.919756 185.6412 233.159104 185.6412 218.16 
C 185.6412 203.160896 189.416044 188.400244 196.616756 175.242629 
C 203.817469 162.085013 214.2151 150.948786 226.848417 142.863464 
C 239.481733 134.778141 253.949051 130.0008 268.912905 128.973093 
C 283.87676 127.945386 298.861367 130.699989 312.481438 136.982247 
" clip-path="url(#p71db9c8d10)" style="fill: none; stroke: #333333; stroke-linecap: square"/>
   </g>
   <g id="line2d_64">
    <path d="M 307.22112 275.37408 
C 292.052822 275.37408 277.490262 269.34207 266.764656 258.616464 
C 256.03905 247.890858 250.00704 233.328298 250.00704 218.16 
C 250.00704 202.991702 256.03905 188.429142 266.764656 177.703536 
C 277.490262 166.97793 292.052822 160.94592 307.22112 160.94592 
" clip-path="url(#p71db9c8d10)" style="fill: none; stroke: #333333; stroke-linecap: square"/>
   </g>
   <g id="line2d_65">
    <path d="M 350.13168 261.07056 
C 345.656189 267.037882 340.274554 272.268456 334.182262 276.572283 
C 328.08997 280.87611 321.361691 284.20044 314.24183 286.424517 
C 307.121968 288.648595 299.697788 289.74516 292.238972 289.67438 
C 284.780155 289.603601 277.378122 288.366344 270.301749 286.007553 
C 263.225376 283.648762 256.561395 280.197347 250.551875 275.778681 
C 244.542354 271.360015 239.260949 266.028255 234.899506 259.977076 
C 230.538063 253.925897 227.150038 247.229466 224.858501 240.131029 
C 222.566963 233.032592 221.4 225.619152 221.4 218.16 
C 221.4 210.700848 222.566963 203.287408 224.858501 196.188971 
C 227.150038 189.090534 230.538063 182.394103 234.899506 176.342924 
C 239.260949 170.291745 244.542354 164.959985 250.551875 160.541319 
C 256.561395 156.122653 263.225376 152.671238 270.301749 150.312447 
C 277.378122 147.953656 284.780155 146.716399 292.238972 146.64562 
C 299.697788 146.57484 307.121968 147.671405 314.24183 149.895483 
C 321.361691 152.11956 328.08997 155.44389 334.182262 159.747717 
C 340.274554 164.051544 345.656189 169.282118 350.13168 175.24944 
" clip-path="url(#p71db9c8d10)" style="fill: none; stroke: #333333; stroke-linecap: square"/>
   </g>
   <g id="line2d_66">
    <path d="M 343.984414 254.249622 
C 337.600588 258.073659 330.314978 260.136258 322.873982 260.22611 
C 315.432986 260.315962 308.099694 258.429889 301.625391 254.761117 
C 295.151087 251.092345 289.764682 245.77059 286.018005 239.341056 
C 282.271327 232.911522 280.296847 225.601539 280.296847 218.16 
C 280.296847 210.718461 282.271327 203.408478 286.018005 196.978944 
C 289.764682 190.54941 295.151087 185.227655 301.625391 181.558883 
C 308.099694 177.890111 315.432986 176.004038 322.873982 176.09389 
C 330.314978 176.183742 337.600588 178.246341 343.984414 182.070378 
" clip-path="url(#p71db9c8d10)" style="fill: none; stroke: #333333; stroke-linecap: square"/>
   </g>
   <g id="line2d_67">
    <path d="M 340.727708 244.501657 
C 337.035337 244.891408 333.301939 244.500486 329.770392 243.354324 
C 326.238845 242.208162 322.987428 240.332164 320.227662 237.848375 
C 317.467897 235.364586 315.260955 232.328061 313.75041 228.93634 
C 312.239866 225.54462 311.4592 221.872885 311.4592 218.16 
C 311.4592 214.447115 312.239866 210.77538 313.75041 207.38366 
C 315.260955 203.991939 317.467897 200.955414 320.227662 198.471625 
C 322.987428 195.987836 326.238845 194.111838 329.770392 192.965676 
C 333.301939 191.819514 337.035337 191.428592 340.727708 191.818343 
" clip-path="url(#p71db9c8d10)" style="fill: none; stroke: #333333; stroke-linecap: square"/>
   </g>
   <g id="line2d_68">
    <path d="M 347.172331 225.558372 
C 346.17042 224.604171 345.372703 223.456316 344.827679 222.184595 
C 344.282656 220.912873 344.0016 219.543592 344.0016 218.16 
C 344.0016 216.776408 344.282656 215.407127 344.827679 214.135405 
C 345.372703 212.863684 346.17042 211.715829 347.172331 210.761628 
" clip-path="url(#p71db9c8d10)" style="fill: none; stroke: #333333; stroke-linecap: square"/>
   </g>
   <g id="line2d_69">
    <path d="M 364.4352 218.16 
C 364.4352 218.16 364.4352 218.16 364.4352 218.16 
C 364.4352 218.16 364.4352 218.16 364.4352 218.16 
" clip-path="url(#p71db9c8d10)" style="fill: none; stroke: #333333; stroke-linecap: square"/>
   </g>
   <g id="patch_11">
    <path d="M 221.4 361.1952 
C 259.333378 361.1952 295.718211 346.124109 322.54116 319.30116 
C 349.364109 292.478211 364.4352 256.093378 364.4352 218.16 
C 364.4352 180.226622 349.364109 143.841789 322.54116 117.01884 
C 295.718211 90.195891 259.333378 75.1248 221.4 75.1248 
C 183.466622 75.1248 147.081789 90.195891 120.25884 117.01884 
C 93.435891 143.841789 78.3648 180.226622 78.3648 218.16 
C 78.3648 256.093378 93.435891 292.478211 120.25884 319.30116 
C 147.081789 346.124109 183.466622 361.1952 221.4 361.1952 
L 221.4 361.1952 
z
" style="fill: none; stroke: #333333; stroke-linejoin: miter; stroke-linecap: square"/>
   </g>
   <g id="text_23">
    <g id="patch_12">
     <path d="M 110.710262 226.111562 
L 110.710262 210.208437 
Q 110.710262 208.208437 109.210262 208.208437 
L 99.532137 208.208437 
Q 98.032137 208.208437 98.032137 210.208437 
L 98.032137 226.111562 
Q 98.032137 228.111562 99.532137 228.111562 
L 109.210262 228.111562 
Q 110.710262 228.111562 110.710262 226.111562 
z
" clip-path="url(#p71db9c8d10)" style="fill: #ffffff; stroke: #ffffff; stroke-linejoin: miter"/>
    </g>
    <g clip-path="url(#p71db9c8d10)">
     <!-- 0.1 -->
     <g transform="translate(107.130575 226.111562) rotate(-90) scale(0.1 -0.1)">
      <use xlink:href="#DejaVuSans-30"/>
      <use xlink:href="#DejaVuSans-2e" transform="translate(63.623047 0)"/>
      <use xlink:href="#DejaVuSans-31" transform="translate(95.410156 0)"/>
     </g>
    </g>
   </g>
   <g id="text_24">
    <g id="patch_13">
     <path d="M 150.720109 226.111562 
L 150.720109 210.208437 
Q 150.720109 208.208437 149.220109 208.208437 
L 139.541984 208.208437 
Q 138.041984 208.208437 138.041984 210.208437 
L 138.041984 226.111562 
Q 138.041984 228.111562 139.541984 228.111562 
L 149.220109 228.111562 
Q 150.720109 228.111562 150.720109 226.111562 
z
" clip-path="url(#p71db9c8d10)" style="fill: #ffffff; stroke: #ffffff; stroke-linejoin: miter"/>
    </g>
    <g clip-path="url(#p71db9c8d10)">
     <!-- 0.3 -->
     <g transform="translate(147.140421 226.111562) rotate(-90) scale(0.1 -0.1)">
      <use xlink:href="#DejaVuSans-30"/>
      <use xlink:href="#DejaVuSans-2e" transform="translate(63.623047 0)"/>
      <use xlink:href="#DejaVuSans-33" transform="translate(95.410156 0)"/>
     </g>
    </g>
   </g>
   <g id="text_25">
    <g id="patch_14">
     <path d="M 191.980262 226.111562 
L 191.980262 210.208437 
Q 191.980262 208.208437 190.480262 208.208437 
L 180.802137 208.208437 
Q 179.302137 208.208437 179.302137 210.208437 
L 179.302137 226.111562 
Q 179.302137 228.111562 180.802137 228.111562 
L 190.480262 228.111562 
Q 191.980262 228.111562 191.980262 226.111562 
z
" clip-path="url(#p71db9c8d10)" style="fill: #ffffff; stroke: #ffffff; stroke-linejoin: miter"/>
    </g>
    <g clip-path="url(#p71db9c8d10)">
     <!-- 0.6 -->
     <g transform="translate(188.400575 226.111562) rotate(-90) scale(0.1 -0.1)">
      <use xlink:href="#DejaVuSans-30"/>
      <use xlink:href="#DejaVuSans-2e" transform="translate(63.623047 0)"/>
      <use xlink:href="#DejaVuSans-36" transform="translate(95.410156 0)"/>
     </g>
    </g>
   </g>
   <g id="text_26">
    <g id="patch_15">
     <path d="M 227.739062 221.34125 
L 227.739062 214.97875 
Q 227.739062 212.97875 226.239062 212.97875 
L 216.560937 212.97875 
Q 215.060937 212.97875 215.060937 214.97875 
L 215.060937 221.34125 
Q 215.060937 223.34125 216.560937 223.34125 
L 226.239062 223.34125 
Q 227.739062 223.34125 227.739062 221.34125 
z
" clip-path="url(#p71db9c8d10)" style="fill: #ffffff; stroke: #ffffff; stroke-linejoin: miter"/>
    </g>
    <g clip-path="url(#p71db9c8d10)">
     <!-- 1 -->
     <g transform="translate(224.159375 221.34125) rotate(-90) scale(0.1 -0.1)">
      <use xlink:href="#DejaVuSans-31"/>
     </g>
    </g>
   </g>
   <g id="text_27">
    <g id="patch_16">
     <path d="M 256.346102 226.111562 
L 256.346102 210.208437 
Q 256.346102 208.208437 254.846102 208.208437 
L 245.167977 208.208437 
Q 243.667977 208.208437 243.667977 210.208437 
L 243.667977 226.111562 
Q 243.667977 228.111562 245.167977 228.111562 
L 254.846102 228.111562 
Q 256.346102 228.111562 256.346102 226.111562 
z
" clip-path="url(#p71db9c8d10)" style="fill: #ffffff; stroke: #ffffff; stroke-linejoin: miter"/>
    </g>
    <g clip-path="url(#p71db9c8d10)">
     <!-- 1.5 -->
     <g transform="translate(252.766415 226.111562) rotate(-90) scale(0.1 -0.1)">
      <use xlink:href="#DejaVuSans-31"/>
      <use xlink:href="#DejaVuSans-2e" transform="translate(63.623047 0)"/>
      <use xlink:href="#DejaVuSans-35" transform="translate(95.410156 0)"/>
     </g>
    </g>
   </g>
   <g id="text_28">
    <g id="patch_17">
     <path d="M 286.63591 226.111562 
L 286.63591 210.208437 
Q 286.63591 208.208437 285.13591 208.208437 
L 275.457785 208.208437 
Q 273.957785 208.208437 273.957785 210.208437 
L 273.957785 226.111562 
Q 273.957785 228.111562 275.457785 228.111562 
L 285.13591 228.111562 
Q 286.63591 228.111562 286.63591 226.111562 
z
" clip-path="url(#p71db9c8d10)" style="fill: #ffffff; stroke: #ffffff; stroke-linejoin: miter"/>
    </g>
    <g clip-path="url(#p71db9c8d10)">
     <!-- 2.4 -->
     <g transform="translate(283.056222 226.111562) rotate(-90) scale(0.1 -0.1)">
      <use xlink:href="#DejaVuSans-32"/>
      <use xlink:href="#DejaVuSans-2e" transform="translate(63.623047 0)"/>
      <use xlink:href="#DejaVuSans-34" transform="translate(95.410156 0)"/>
     </g>
    </g>
   </g>
   <g id="text_29">
    <g id="patch_18">
     <path d="M 317.798263 226.111562 
L 317.798263 210.208437 
Q 317.798263 208.208437 316.298263 208.208437 
L 306.620137 208.208437 
Q 305.120137 208.208437 305.120137 210.208437 
L 305.120137 226.111562 
Q 305.120137 228.111562 306.620137 228.111562 
L 316.298263 228.111562 
Q 317.798263 228.111562 317.798263 226.111562 
z
" clip-path="url(#p71db9c8d10)" style="fill: #ffffff; stroke: #ffffff; stroke-linejoin: miter"/>
    </g>
    <g clip-path="url(#p71db9c8d10)">
     <!-- 4.4 -->
     <g transform="translate(314.218575 226.111562) rotate(-90) scale(0.1 -0.1)">
      <use xlink:href="#DejaVuSans-34"/>
      <use xlink:href="#DejaVuSans-2e" transform="translate(63.623047 0)"/>
      <use xlink:href="#DejaVuSans-34" transform="translate(95.410156 0)"/>
     </g>
    </g>
   </g>
   <g id="text_30">
    <g id="patch_19">
     <path d="M 350.340663 224.5225 
L 350.340663 211.7975 
Q 350.340663 209.7975 348.840663 209.7975 
L 339.162537 209.7975 
Q 337.662537 209.7975 337.662537 211.7975 
L 337.662537 224.5225 
Q 337.662537 226.5225 339.162537 226.5225 
L 348.840663 226.5225 
Q 350.340663 226.5225 350.340663 224.5225 
z
" clip-path="url(#p71db9c8d10)" style="fill: #ffffff; stroke: #ffffff; stroke-linejoin: miter"/>
    </g>
    <g clip-path="url(#p71db9c8d10)">
     <!-- 13 -->
     <g transform="translate(346.760975 224.5225) rotate(-90) scale(0.1 -0.1)">
      <use xlink:href="#DejaVuSans-31"/>
      <use xlink:href="#DejaVuSans-33" transform="translate(63.623047 0)"/>
     </g>
    </g>
   </g>
   <g id="text_31">
    <!-- Z₀ = 200 Ω -->
    <g transform="translate(61.7328 377.8272) scale(0.14 -0.14)">
     <defs>
      <path id="DejaVuSans-5a" d="M 359 4666 
L 4025 4666 
L 4025 4184 
L 1075 531 
L 4097 531 
L 4097 0 
L 288 0 
L 288 481 
L 3238 4134 
L 359 4134 
L 359 4666 
z
" transform="scale(0.015625)"/>
      <path id="DejaVuSans-2080" d="M 1781 2091 
Q 1625 2360 1309 2360 
Q 994 2360 838 2091 
Q 678 1822 678 1285 
Q 678 744 838 476 
Q 994 207 1309 207 
Q 1625 207 1781 476 
Q 1941 744 1941 1285 
Q 1941 1822 1781 2091 
z
M 1309 2638 
Q 1813 2638 2078 2291 
Q 2344 1944 2344 1285 
Q 2344 622 2078 275 
Q 1813 -71 1309 -71 
Q 803 -71 537 275 
Q 272 622 272 1285 
Q 272 1944 537 2291 
Q 803 2638 1309 2638 
z
" transform="scale(0.015625)"/>
      <path id="DejaVuSans-3d" d="M 678 2906 
L 4684 2906 
L 4684 2381 
L 678 2381 
L 678 2906 
z
M 678 1631 
L 4684 1631 
L 4684 1100 
L 678 1100 
L 678 1631 
z
" transform="scale(0.015625)"/>
      <path id="DejaVuSans-3a9" d="M 4647 556 
L 4647 0 
L 2772 0 
L 2772 556 
Q 3325 859 3634 1378 
Q 3944 1897 3944 2528 
Q 3944 3278 3531 3731 
Q 3119 4184 2444 4184 
Q 1769 4184 1355 3729 
Q 941 3275 941 2528 
Q 941 1897 1250 1378 
Q 1563 859 2119 556 
L 2119 0 
L 244 0 
L 244 556 
L 1241 556 
Q 747 991 519 1456 
Q 294 1922 294 2497 
Q 294 3491 894 4106 
Q 1491 4722 2444 4722 
Q 3391 4722 3994 4106 
Q 4594 3494 4594 2528 
Q 4594 1922 4372 1459 
Q 4150 997 3647 556 
L 4647 556 
z
" transform="scale(0.015625)"/>
     </defs>
     <use xlink:href="#DejaVuSans-5a"/>
     <use xlink:href="#DejaVuSans-2080" transform="translate(68.505859 0)"/>
     <use xlink:href="#DejaVuSans-20" transform="translate(108.59375 0)"/>
     <use xlink:href="#DejaVuSans-3d" transform="translate(140.380859 0)"/>
     <use xlink:href="#DejaVuSans-20" transform="translate(224.169922 0)"/>
     <use xlink:href="#DejaVuSans-32" transform="translate(255.957031 0)"/>
     <use xlink:href="#DejaVuSans-30" transform="translate(319.580078 0)"/>
     <use xlink:href="#DejaVuSans-30" transform="translate(383.203125 0)"/>
     <use xlink:href="#DejaVuSans-20" transform="translate(446.826172 0)"/>
     <use xlink:href="#DejaVuSans-3a9" transform="translate(478.613281 0)"/>
    </g>
   </g>
   <g id="text_32">
    <!-- Impedance parameters with Z₀=200Ω -->
    <g transform="translate(84.32775 45.84) scale(0.144 -0.144)">
     <defs>
      <path id="DejaVuSans-49" d="M 628 4666 
L 1259 4666 
L 1259 0 
L 628 0 
L 628 4666 
z
" transform="scale(0.015625)"/>
      <path id="DejaVuSans-6d" d="M 3328 2828 
Q 3544 3216 3844 3400 
Q 4144 3584 4550 3584 
Q 5097 3584 5394 3201 
Q 5691 2819 5691 2113 
L 5691 0 
L 5113 0 
L 5113 2094 
Q 5113 2597 4934 2840 
Q 4756 3084 4391 3084 
Q 3944 3084 3684 2787 
Q 3425 2491 3425 1978 
L 3425 0 
L 2847 0 
L 2847 2094 
Q 2847 2600 2669 2842 
Q 2491 3084 2119 3084 
Q 1678 3084 1418 2786 
Q 1159 2488 1159 1978 
L 1159 0 
L 581 0 
L 581 3500 
L 1159 3500 
L 1159 2956 
Q 1356 3278 1631 3431 
Q 1906 3584 2284 3584 
Q 2666 3584 2933 3390 
Q 3200 3197 3328 2828 
z
" transform="scale(0.015625)"/>
      <path id="DejaVuSans-70" d="M 1159 525 
L 1159 -1331 
L 581 -1331 
L 581 3500 
L 1159 3500 
L 1159 2969 
Q 1341 3281 1617 3432 
Q 1894 3584 2278 3584 
Q 2916 3584 3314 3078 
Q 3713 2572 3713 1747 
Q 3713 922 3314 415 
Q 2916 -91 2278 -91 
Q 1894 -91 1617 61 
Q 1341 213 1159 525 
z
M 3116 1747 
Q 3116 2381 2855 2742 
Q 2594 3103 2138 3103 
Q 1681 3103 1420 2742 
Q 1159 2381 1159 1747 
Q 1159 1113 1420 752 
Q 1681 391 2138 391 
Q 2594 391 2855 752 
Q 3116 1113 3116 1747 
z
" transform="scale(0.015625)"/>
      <path id="DejaVuSans-65" d="M 3597 1894 
L 3597 1613 
L 953 1613 
Q 991 1019 1311 708 
Q 1631 397 2203 397 
Q 2534 397 2845 478 
Q 3156 559 3463 722 
L 3463 178 
Q 3153 47 2828 -22 
Q 2503 -91 2169 -91 
Q 1331 -91 842 396 
Q 353 884 353 1716 
Q 353 2575 817 3079 
Q 1281 3584 2069 3584 
Q 2775 3584 3186 3129 
Q 3597 2675 3597 1894 
z
M 3022 2063 
Q 3016 2534 2758 2815 
Q 2500 3097 2075 3097 
Q 1594 3097 1305 2825 
Q 1016 2553 972 2059 
L 3022 2063 
z
" transform="scale(0.015625)"/>
      <path id="DejaVuSans-64" d="M 2906 2969 
L 2906 4863 
L 3481 4863 
L 3481 0 
L 2906 0 
L 2906 525 
Q 2725 213 2448 61 
Q 2172 -91 1784 -91 
Q 1150 -91 751 415 
Q 353 922 353 1747 
Q 353 2572 751 3078 
Q 1150 3584 1784 3584 
Q 2172 3584 2448 3432 
Q 2725 3281 2906 2969 
z
M 947 1747 
Q 947 1113 1208 752 
Q 1469 391 1925 391 
Q 2381 391 2643 752 
Q 2906 1113 2906 1747 
Q 2906 2381 2643 2742 
Q 2381 3103 1925 3103 
Q 1469 3103 1208 2742 
Q 947 2381 947 1747 
z
" transform="scale(0.015625)"/>
      <path id="DejaVuSans-61" d="M 2194 1759 
Q 1497 1759 1228 1600 
Q 959 1441 959 1056 
Q 959 750 1161 570 
Q 1363 391 1709 391 
Q 2188 391 2477 730 
Q 2766 1069 2766 1631 
L 2766 1759 
L 2194 1759 
z
M 3341 1997 
L 3341 0 
L 2766 0 
L 2766 531 
Q 2569 213 2275 61 
Q 1981 -91 1556 -91 
Q 1019 -91 701 211 
Q 384 513 384 1019 
Q 384 1609 779 1909 
Q 1175 2209 1959 2209 
L 2766 2209 
L 2766 2266 
Q 2766 2663 2505 2880 
Q 2244 3097 1772 3097 
Q 1472 3097 1187 3025 
Q 903 2953 641 2809 
L 641 3341 
Q 956 3463 1253 3523 
Q 1550 3584 1831 3584 
Q 2591 3584 2966 3190 
Q 3341 2797 3341 1997 
z
" transform="scale(0.015625)"/>
      <path id="DejaVuSans-6e" d="M 3513 2113 
L 3513 0 
L 2938 0 
L 2938 2094 
Q 2938 2591 2744 2837 
Q 2550 3084 2163 3084 
Q 1697 3084 1428 2787 
Q 1159 2491 1159 1978 
L 1159 0 
L 581 0 
L 581 3500 
L 1159 3500 
L 1159 2956 
Q 1366 3272 1645 3428 
Q 1925 3584 2291 3584 
Q 2894 3584 3203 3211 
Q 3513 2838 3513 2113 
z
" transform="scale(0.015625)"/>
      <path id="DejaVuSans-63" d="M 3122 3366 
L 3122 2828 
Q 2878 2963 2633 3030 
Q 2388 3097 2138 3097 
Q 1578 3097 1268 2742 
Q 959 2388 959 1747 
Q 959 1106 1268 751 
Q 1578 397 2138 397 
Q 2388 397 2633 464 
Q 2878 531 3122 666 
L 3122 134 
Q 2881 22 2623 -34 
Q 2366 -91 2075 -91 
Q 1284 -91 818 406 
Q 353 903 353 1747 
Q 353 2603 823 3093 
Q 1294 3584 2113 3584 
Q 2378 3584 2631 3529 
Q 2884 3475 3122 3366 
z
" transform="scale(0.015625)"/>
      <path id="DejaVuSans-72" d="M 2631 2963 
Q 2534 3019 2420 3045 
Q 2306 3072 2169 3072 
Q 1681 3072 1420 2755 
Q 1159 2438 1159 1844 
L 1159 0 
L 581 0 
L 581 3500 
L 1159 3500 
L 1159 2956 
Q 1341 3275 1631 3429 
Q 1922 3584 2338 3584 
Q 2397 3584 2469 3576 
Q 2541 3569 2628 3553 
L 2631 2963 
z
" transform="scale(0.015625)"/>
      <path id="DejaVuSans-74" d="M 1172 4494 
L 1172 3500 
L 2356 3500 
L 2356 3053 
L 1172 3053 
L 1172 1153 
Q 1172 725 1289 603 
Q 1406 481 1766 481 
L 2356 481 
L 2356 0 
L 1766 0 
Q 1100 0 847 248 
Q 594 497 594 1153 
L 594 3053 
L 172 3053 
L 172 3500 
L 594 3500 
L 594 4494 
L 1172 4494 
z
" transform="scale(0.015625)"/>
      <path id="DejaVuSans-73" d="M 2834 3397 
L 2834 2853 
Q 2591 2978 2328 3040 
Q 2066 3103 1784 3103 
Q 1356 3103 1142 2972 
Q 928 2841 928 2578 
Q 928 2378 1081 2264 
Q 1234 2150 1697 2047 
L 1894 2003 
Q 2506 1872 2764 1633 
Q 3022 1394 3022 966 
Q 3022 478 2636 193 
Q 2250 -91 1575 -91 
Q 1294 -91 989 -36 
Q 684 19 347 128 
L 347 722 
Q 666 556 975 473 
Q 1284 391 1588 391 
Q 1994 391 2212 530 
Q 2431 669 2431 922 
Q 2431 1156 2273 1281 
Q 2116 1406 1581 1522 
L 1381 1569 
Q 847 1681 609 1914 
Q 372 2147 372 2553 
Q 372 3047 722 3315 
Q 1072 3584 1716 3584 
Q 2034 3584 2315 3537 
Q 2597 3491 2834 3397 
z
" transform="scale(0.015625)"/>
      <path id="DejaVuSans-77" d="M 269 3500 
L 844 3500 
L 1563 769 
L 2278 3500 
L 2956 3500 
L 3675 769 
L 4391 3500 
L 4966 3500 
L 4050 0 
L 3372 0 
L 2619 2869 
L 1863 0 
L 1184 0 
L 269 3500 
z
" transform="scale(0.015625)"/>
      <path id="DejaVuSans-69" d="M 603 3500 
L 1178 3500 
L 1178 0 
L 603 0 
L 603 3500 
z
M 603 4863 
L 1178 4863 
L 1178 4134 
L 603 4134 
L 603 4863 
z
" transform="scale(0.015625)"/>
      <path id="DejaVuSans-68" d="M 3513 2113 
L 3513 0 
L 2938 0 
L 2938 2094 
Q 2938 2591 2744 2837 
Q 2550 3084 2163 3084 
Q 1697 3084 1428 2787 
Q 1159 2491 1159 1978 
L 1159 0 
L 581 0 
L 581 4863 
L 1159 4863 
L 1159 2956 
Q 1366 3272 1645 3428 
Q 1925 3584 2291 3584 
Q 2894 3584 3203 3211 
Q 3513 2838 3513 2113 
z
" transform="scale(0.015625)"/>
      <path id="DejaVuSans-2126" d="M 4647 556 
L 4647 0 
L 2772 0 
L 2772 556 
Q 3325 859 3634 1378 
Q 3944 1897 3944 2528 
Q 3944 3278 3531 3731 
Q 3119 4184 2444 4184 
Q 1769 4184 1355 3729 
Q 941 3275 941 2528 
Q 941 1897 1250 1378 
Q 1563 859 2119 556 
L 2119 0 
L 244 0 
L 244 556 
L 1241 556 
Q 747 991 519 1456 
Q 294 1922 294 2497 
Q 294 3491 894 4106 
Q 1491 4722 2444 4722 
Q 3391 4722 3994 4106 
Q 4594 3494 4594 2528 
Q 4594 1922 4372 1459 
Q 4150 997 3647 556 
L 4647 556 
z
" transform="scale(0.015625)"/>
     </defs>
     <use xlink:href="#DejaVuSans-49"/>
     <use xlink:href="#DejaVuSans-6d" transform="translate(29.492188 0)"/>
     <use xlink:href="#DejaVuSans-70" transform="translate(126.904297 0)"/>
     <use xlink:href="#DejaVuSans-65" transform="translate(190.380859 0)"/>
     <use xlink:href="#DejaVuSans-64" transform="translate(251.904297 0)"/>
     <use xlink:href="#DejaVuSans-61" transform="translate(315.380859 0)"/>
     <use xlink:href="#DejaVuSans-6e" transform="translate(376.660156 0)"/>
     <use xlink:href="#DejaVuSans-63" transform="translate(440.039062 0)"/>
     <use xlink:href="#DejaVuSans-65" transform="translate(495.019531 0)"/>
     <use xlink:href="#DejaVuSans-20" transform="translate(556.542969 0)"/>
     <use xlink:href="#DejaVuSans-70" transform="translate(588.330078 0)"/>
     <use xlink:href="#DejaVuSans-61" transform="translate(651.806641 0)"/>
     <use xlink:href="#DejaVuSans-72" transform="translate(713.085938 0)"/>
     <use xlink:href="#DejaVuSans-61" transform="translate(754.199219 0)"/>
     <use xlink:href="#DejaVuSans-6d" transform="translate(815.478516 0)"/>
     <use xlink:href="#DejaVuSans-65" transform="translate(912.890625 0)"/>
     <use xlink:href="#DejaVuSans-74" transform="translate(974.414062 0)"/>
     <use xlink:href="#DejaVuSans-65" transform="translate(1013.623047 0)"/>
     <use xlink:href="#DejaVuSans-72" transform="translate(1075.146484 0)"/>
     <use xlink:href="#DejaVuSans-73" transform="translate(1116.259766 0)"/>
     <use xlink:href="#DejaVuSans-20" transform="translate(1168.359375 0)"/>
     <use xlink:href="#DejaVuSans-77" transform="translate(1200.146484 0)"/>
     <use xlink:href="#DejaVuSans-69" transform="translate(1281.933594 0)"/>
     <use xlink:href="#DejaVuSans-74" transform="translate(1309.716797 0)"/>
     <use xlink:href="#DejaVuSans-68" transform="translate(1348.925781 0)"/>
     <use xlink:href="#DejaVuSans-20" transform="translate(1412.304688 0)"/>
     <use xlink:href="#DejaVuSans-5a" transform="translate(1444.091797 0)"/>
     <use xlink:href="#DejaVuSans-2080" transform="translate(1512.597656 0)"/>
     <use xlink:href="#DejaVuSans-3d" transform="translate(1552.685547 0)"/>
     <use xlink:href="#DejaVuSans-32" transform="translate(1636.474609 0)"/>
     <use xlink:href="#DejaVuSans-30" transform="translate(1700.097656 0)"/>
     <use xlink:href="#DejaVuSans-30" transform="translate(1763.720703 0)"/>
     <use xlink:href="#DejaVuSans-2126" transform="translate(1827.34375 0)"/>
    </g>
   </g>
   <g id="line2d_70">
    <path d="M 119.839691 186.256238 
L 144.381046 174.149169 
L 192.79296 160.94592 
" clip-path="url(#p71db9c8d10)" style="fill: none; stroke: #0000ff; stroke-width: 2; stroke-linecap: square"/>
    <defs>
     <path id="m1537794f3b" d="M 0 5 
C 1.326016 5 2.597899 4.473168 3.535534 3.535534 
C 4.473168 2.597899 5 1.326016 5 0 
C 5 -1.326016 4.473168 -2.597899 3.535534 -3.535534 
C 2.597899 -4.473168 1.326016 -5 0 -5 
C -1.326016 -5 -2.597899 -4.473168 -3.535534 -3.535534 
C -4.473168 -2.597899 -5 -1.326016 -5 0 
C -5 1.326016 -4.473168 2.597899 -3.535534 3.535534 
C -2.597899 4.473168 -1.326016 5 0 5 
z
" style="stroke: #0000ff"/>
    </defs>
    <g clip-path="url(#p71db9c8d10)">
     <use xlink:href="#m1537794f3b" x="119.839691" y="186.256238" style="fill: #0000ff; stroke: #0000ff"/>
     <use xlink:href="#m1537794f3b" x="144.381046" y="174.149169" style="fill: #0000ff; stroke: #0000ff"/>
     <use xlink:href="#m1537794f3b" x="192.79296" y="160.94592" style="fill: #0000ff; stroke: #0000ff"/>
    </g>
   </g>
  </g>
 </g>
 <defs>
  <clipPath id="p71db9c8d10">
   <path d="M 221.4 366.1848 
C 260.656636 366.1848 298.310706 350.587973 326.06934 322.82934 
C 353.827973 295.070706 369.4248 257.416636 369.4248 218.16 
C 369.4248 178.903364 353.827973 141.249294 326.06934 113.49066 
C 298.310706 85.732027 260.656636 70.1352 221.4 70.1352 
C 182.143364 70.1352 144.489294 85.732027 116.73066 113.49066 
C 88.972027 141.249294 73.3752 178.903364 73.3752 218.16 
C 73.3752 257.416636 88.972027 295.070706 116.73066 322.82934 
C 144.489294 350.587973 182.143364 366.1848 221.4 366.1848 
z
"/>
  </clipPath>
 </defs>
</svg>
